<svg width="46" height="48" viewBox="0 0 46 48" fill="none" xmlns="http://www.w3.org/2000/svg">
<path fill-rule="evenodd" clip-rule="evenodd" d="M0.600098 7.19998C0.600098 6.77563 0.768669 6.36866 1.06873 6.06861C1.36879 5.76855 1.77575 5.59998 2.2001 5.59998H24.6001C25.0244 5.59998 25.4314 5.76855 25.7315 6.06861C26.0315 6.36866 26.2001 6.77563 26.2001 7.19998C26.2001 7.62432 26.0315 8.03129 25.7315 8.33135C25.4314 8.6314 25.0244 8.79998 24.6001 8.79998H2.2001C1.77575 8.79998 1.36879 8.6314 1.06873 8.33135C0.768669 8.03129 0.600098 7.62432 0.600098 7.19998ZM37.0161 7.19998C37.0161 6.77563 37.1847 6.36866 37.4847 6.06861C37.7848 5.76855 38.1918 5.59998 38.6161 5.59998H43.8001C44.2244 5.59998 44.6314 5.76855 44.9315 6.06861C45.2315 6.36866 45.4001 6.77563 45.4001 7.19998C45.4001 7.62432 45.2315 8.03129 44.9315 8.33135C44.6314 8.6314 44.2244 8.79998 43.8001 8.79998H38.6161C38.1918 8.79998 37.7848 8.6314 37.4847 8.33135C37.1847 8.03129 37.0161 7.62432 37.0161 7.19998Z" fill="#009688"/>
<path fill-rule="evenodd" clip-rule="evenodd" d="M31.8001 12.8C33.0731 12.8 34.294 12.2943 35.1942 11.3941C36.0944 10.4939 36.6001 9.27304 36.6001 8C36.6001 6.72696 36.0944 5.50606 35.1942 4.60589C34.294 3.70571 33.0731 3.2 31.8001 3.2C30.5271 3.2 29.3062 3.70571 28.406 4.60589C27.5058 5.50606 27.0001 6.72696 27.0001 8C27.0001 9.27304 27.5058 10.4939 28.406 11.3941C29.3062 12.2943 30.5271 12.8 31.8001 12.8ZM31.8001 16C33.9218 16 35.9567 15.1571 37.457 13.6569C38.9572 12.1566 39.8001 10.1217 39.8001 8C39.8001 5.87827 38.9572 3.84344 37.457 2.34315C35.9567 0.842855 33.9218 0 31.8001 0C29.6784 0 27.6435 0.842855 26.1432 2.34315C24.643 3.84344 23.8001 5.87827 23.8001 8C23.8001 10.1217 24.643 12.1566 26.1432 13.6569C27.6435 15.1571 29.6784 16 31.8001 16ZM0.600098 39.2C0.600098 38.7757 0.768669 38.3687 1.06873 38.0686C1.36879 37.7686 1.77575 37.6 2.2001 37.6H24.6001C25.0244 37.6 25.4314 37.7686 25.7315 38.0686C26.0315 38.3687 26.2001 38.7757 26.2001 39.2C26.2001 39.6243 26.0315 40.0313 25.7315 40.3314C25.4314 40.6314 25.0244 40.8 24.6001 40.8H2.2001C1.77575 40.8 1.36879 40.6314 1.06873 40.3314C0.768669 40.0313 0.600098 39.6243 0.600098 39.2ZM37.0161 39.2C37.0161 38.7757 37.1847 38.3687 37.4847 38.0686C37.7848 37.7686 38.1918 37.6 38.6161 37.6H43.8001C44.2244 37.6 44.6314 37.7686 44.9315 38.0686C45.2315 38.3687 45.4001 38.7757 45.4001 39.2C45.4001 39.6243 45.2315 40.0313 44.9315 40.3314C44.6314 40.6314 44.2244 40.8 43.8001 40.8H38.6161C38.1918 40.8 37.7848 40.6314 37.4847 40.3314C37.1847 40.0313 37.0161 39.6243 37.0161 39.2Z" fill="#009688"/>
<path fill-rule="evenodd" clip-rule="evenodd" d="M31.8001 44.8C33.0731 44.8 34.294 44.2943 35.1942 43.3941C36.0944 42.4939 36.6001 41.273 36.6001 40C36.6001 38.7269 36.0944 37.506 35.1942 36.6059C34.294 35.7057 33.0731 35.2 31.8001 35.2C30.5271 35.2 29.3062 35.7057 28.406 36.6059C27.5058 37.506 27.0001 38.7269 27.0001 40C27.0001 41.273 27.5058 42.4939 28.406 43.3941C29.3062 44.2943 30.5271 44.8 31.8001 44.8ZM31.8001 48C33.9218 48 35.9567 47.1571 37.457 45.6568C38.9572 44.1565 39.8001 42.1217 39.8001 40C39.8001 37.8782 38.9572 35.8434 37.457 34.3431C35.9567 32.8428 33.9218 32 31.8001 32C29.6784 32 27.6435 32.8428 26.1432 34.3431C24.643 35.8434 23.8001 37.8782 23.8001 40C23.8001 42.1217 24.643 44.1565 26.1432 45.6568C27.6435 47.1571 29.6784 48 31.8001 48ZM0.600098 23.2C0.600098 22.7756 0.768669 22.3687 1.06873 22.0686C1.36879 21.7685 1.77575 21.6 2.2001 21.6H9.0161C9.44044 21.6 9.84741 21.7685 10.1475 22.0686C10.4475 22.3687 10.6161 22.7756 10.6161 23.2C10.6161 23.6243 10.4475 24.0313 10.1475 24.3313C9.84741 24.6314 9.44044 24.8 9.0161 24.8H2.2001C1.77575 24.8 1.36879 24.6314 1.06873 24.3313C0.768669 24.0313 0.600098 23.6243 0.600098 23.2ZM21.4001 23.2C21.4001 22.7756 21.5687 22.3687 21.8687 22.0686C22.1688 21.7685 22.5758 21.6 23.0001 21.6H43.8001C44.2244 21.6 44.6314 21.7685 44.9315 22.0686C45.2315 22.3687 45.4001 22.7756 45.4001 23.2C45.4001 23.6243 45.2315 24.0313 44.9315 24.3313C44.6314 24.6314 44.2244 24.8 43.8001 24.8H23.0001C22.5758 24.8 22.1688 24.6314 21.8687 24.3313C21.5687 24.0313 21.4001 23.6243 21.4001 23.2Z" fill="#009688"/>
<path fill-rule="evenodd" clip-rule="evenodd" d="M15.8 28.8C17.0731 28.8 18.294 28.2943 19.1942 27.3941C20.0943 26.4939 20.6 25.273 20.6 24C20.6 22.727 20.0943 21.5061 19.1942 20.6059C18.294 19.7057 17.0731 19.2 15.8 19.2C14.527 19.2 13.3061 19.7057 12.4059 20.6059C11.5058 21.5061 11 22.727 11 24C11 25.273 11.5058 26.4939 12.4059 27.3941C13.3061 28.2943 14.527 28.8 15.8 28.8ZM15.8 32C17.9218 32 19.9566 31.1571 21.4569 29.6569C22.9572 28.1566 23.8 26.1217 23.8 24C23.8 21.8783 22.9572 19.8434 21.4569 18.3431C19.9566 16.8429 17.9218 16 15.8 16C13.6783 16 11.6435 16.8429 10.1432 18.3431C8.6429 19.8434 7.80005 21.8783 7.80005 24C7.80005 26.1217 8.6429 28.1566 10.1432 29.6569C11.6435 31.1571 13.6783 32 15.8 32Z" fill="#009688"/>
</svg>
