<svg width="64" height="64" viewBox="0 0 64 64" fill="none" xmlns="http://www.w3.org/2000/svg">
<path fill-rule="evenodd" clip-rule="evenodd" d="M9.60001 15.2C9.60001 14.7756 9.76858 14.3687 10.0686 14.0686C10.3687 13.7685 10.7757 13.6 11.2 13.6H33.6C34.0244 13.6 34.4313 13.7685 34.7314 14.0686C35.0314 14.3687 35.2 14.7756 35.2 15.2C35.2 15.6243 35.0314 16.0313 34.7314 16.3313C34.4313 16.6314 34.0244 16.8 33.6 16.8H11.2C10.7757 16.8 10.3687 16.6314 10.0686 16.3313C9.76858 16.0313 9.60001 15.6243 9.60001 15.2ZM46.016 15.2C46.016 14.7756 46.1846 14.3687 46.4846 14.0686C46.7847 13.7685 47.1917 13.6 47.616 13.6H52.8C53.2244 13.6 53.6313 13.7685 53.9314 14.0686C54.2314 14.3687 54.4 14.7756 54.4 15.2C54.4 15.6243 54.2314 16.0313 53.9314 16.3313C53.6313 16.6314 53.2244 16.8 52.8 16.8H47.616C47.1917 16.8 46.7847 16.6314 46.4846 16.3313C46.1846 16.0313 46.016 15.6243 46.016 15.2Z" fill="white"/>
<path fill-rule="evenodd" clip-rule="evenodd" d="M40.8 20.8C42.073 20.8 43.2939 20.2943 44.1941 19.3941C45.0943 18.4939 45.6 17.273 45.6 16C45.6 14.727 45.0943 13.5061 44.1941 12.6059C43.2939 11.7057 42.073 11.2 40.8 11.2C39.527 11.2 38.3061 11.7057 37.4059 12.6059C36.5057 13.5061 36 14.727 36 16C36 17.273 36.5057 18.4939 37.4059 19.3941C38.3061 20.2943 39.527 20.8 40.8 20.8ZM40.8 24C42.9217 24 44.9566 23.1571 46.4569 21.6569C47.9572 20.1566 48.8 18.1217 48.8 16C48.8 13.8783 47.9572 11.8434 46.4569 10.3431C44.9566 8.84285 42.9217 8 40.8 8C38.6783 8 36.6434 8.84285 35.1432 10.3431C33.6429 11.8434 32.8 13.8783 32.8 16C32.8 18.1217 33.6429 20.1566 35.1432 21.6569C36.6434 23.1571 38.6783 24 40.8 24ZM9.60001 47.2C9.60001 46.7757 9.76858 46.3687 10.0686 46.0686C10.3687 45.7686 10.7757 45.6 11.2 45.6H33.6C34.0244 45.6 34.4313 45.7686 34.7314 46.0686C35.0314 46.3687 35.2 46.7757 35.2 47.2C35.2 47.6243 35.0314 48.0313 34.7314 48.3314C34.4313 48.6314 34.0244 48.8 33.6 48.8H11.2C10.7757 48.8 10.3687 48.6314 10.0686 48.3314C9.76858 48.0313 9.60001 47.6243 9.60001 47.2ZM46.016 47.2C46.016 46.7757 46.1846 46.3687 46.4846 46.0686C46.7847 45.7686 47.1917 45.6 47.616 45.6H52.8C53.2244 45.6 53.6313 45.7686 53.9314 46.0686C54.2314 46.3687 54.4 46.7757 54.4 47.2C54.4 47.6243 54.2314 48.0313 53.9314 48.3314C53.6313 48.6314 53.2244 48.8 52.8 48.8H47.616C47.1917 48.8 46.7847 48.6314 46.4846 48.3314C46.1846 48.0313 46.016 47.6243 46.016 47.2Z" fill="white"/>
<path fill-rule="evenodd" clip-rule="evenodd" d="M40.8 52.8C42.073 52.8 43.2939 52.2943 44.1941 51.3941C45.0943 50.4939 45.6 49.273 45.6 48C45.6 46.7269 45.0943 45.506 44.1941 44.6059C43.2939 43.7057 42.073 43.2 40.8 43.2C39.527 43.2 38.3061 43.7057 37.4059 44.6059C36.5057 45.506 36 46.7269 36 48C36 49.273 36.5057 50.4939 37.4059 51.3941C38.3061 52.2943 39.527 52.8 40.8 52.8ZM40.8 56C42.9217 56 44.9566 55.1571 46.4569 53.6568C47.9572 52.1565 48.8 50.1217 48.8 48C48.8 45.8782 47.9572 43.8434 46.4569 42.3431C44.9566 40.8428 42.9217 40 40.8 40C38.6783 40 36.6434 40.8428 35.1432 42.3431C33.6429 43.8434 32.8 45.8782 32.8 48C32.8 50.1217 33.6429 52.1565 35.1432 53.6568C36.6434 55.1571 38.6783 56 40.8 56ZM9.60001 31.2C9.60001 30.7756 9.76858 30.3687 10.0686 30.0686C10.3687 29.7685 10.7757 29.6 11.2 29.6H18.016C18.4404 29.6 18.8473 29.7685 19.1474 30.0686C19.4474 30.3687 19.616 30.7756 19.616 31.2C19.616 31.6243 19.4474 32.0313 19.1474 32.3313C18.8473 32.6314 18.4404 32.8 18.016 32.8H11.2C10.7757 32.8 10.3687 32.6314 10.0686 32.3313C9.76858 32.0313 9.60001 31.6243 9.60001 31.2ZM30.4 31.2C30.4 30.7756 30.5686 30.3687 30.8686 30.0686C31.1687 29.7685 31.5757 29.6 32 29.6H52.8C53.2244 29.6 53.6313 29.7685 53.9314 30.0686C54.2314 30.3687 54.4 30.7756 54.4 31.2C54.4 31.6243 54.2314 32.0313 53.9314 32.3313C53.6313 32.6314 53.2244 32.8 52.8 32.8H32C31.5757 32.8 31.1687 32.6314 30.8686 32.3313C30.5686 32.0313 30.4 31.6243 30.4 31.2Z" fill="white"/>
<path fill-rule="evenodd" clip-rule="evenodd" d="M24.8 36.8C26.073 36.8 27.2939 36.2943 28.1941 35.3941C29.0943 34.4939 29.6 33.273 29.6 32C29.6 30.727 29.0943 29.5061 28.1941 28.6059C27.2939 27.7057 26.073 27.2 24.8 27.2C23.527 27.2 22.3061 27.7057 21.4059 28.6059C20.5057 29.5061 20 30.727 20 32C20 33.273 20.5057 34.4939 21.4059 35.3941C22.3061 36.2943 23.527 36.8 24.8 36.8ZM24.8 40C26.9217 40 28.9566 39.1571 30.4569 37.6569C31.9571 36.1566 32.8 34.1217 32.8 32C32.8 29.8783 31.9571 27.8434 30.4569 26.3431C28.9566 24.8429 26.9217 24 24.8 24C22.6783 24 20.6434 24.8429 19.1431 26.3431C17.6429 27.8434 16.8 29.8783 16.8 32C16.8 34.1217 17.6429 36.1566 19.1431 37.6569C20.6434 39.1571 22.6783 40 24.8 40Z" fill="white"/>
</svg>
