<svg width="54" height="48" viewBox="0 0 54 48" fill="none" xmlns="http://www.w3.org/2000/svg">
<path d="M16.3333 48C14.8666 48 13.6115 47.4782 12.568 46.4347C11.5244 45.3911 11.0018 44.1351 11 42.6667V37.3333H5.66665C4.19998 37.3333 2.94487 36.8116 1.90131 35.768C0.857758 34.7244 0.335091 33.4684 0.333313 32V21.3333C0.333313 19.0667 1.11109 17.1671 2.66665 15.6347C4.2222 14.1022 6.11109 13.3351 8.33331 13.3333H45.6666C47.9333 13.3333 49.8338 14.1004 51.368 15.6347C52.9022 17.1689 53.6684 19.0684 53.6666 21.3333V32C53.6666 33.4667 53.1449 34.7227 52.1013 35.768C51.0578 36.8133 49.8018 37.3351 48.3333 37.3333H43V42.6667C43 44.1333 42.4782 45.3893 41.4346 46.4347C40.3911 47.48 39.1351 48.0018 37.6666 48H16.3333ZM5.66665 32H11C11 30.5333 11.5226 29.2782 12.568 28.2347C13.6133 27.1911 14.8684 26.6684 16.3333 26.6667H37.6666C39.1333 26.6667 40.3893 27.1893 41.4346 28.2347C42.48 29.28 43.0018 30.5351 43 32H48.3333V21.3333C48.3333 20.5778 48.0773 19.9449 47.5653 19.4347C47.0533 18.9244 46.4204 18.6684 45.6666 18.6667H8.33331C7.57776 18.6667 6.94487 18.9227 6.43465 19.4347C5.92442 19.9467 5.66842 20.5796 5.66665 21.3333V32ZM37.6666 13.3333V5.33333H16.3333V13.3333H11V5.33333C11 3.86667 11.5226 2.61156 12.568 1.568C13.6133 0.524445 14.8684 0.00177778 16.3333 0H37.6666C39.1333 0 40.3893 0.522667 41.4346 1.568C42.48 2.61333 43.0018 3.86844 43 5.33333V13.3333H37.6666ZM43 25.3333C43.7555 25.3333 44.3893 25.0773 44.9013 24.5653C45.4133 24.0533 45.6684 23.4204 45.6666 22.6667C45.6649 21.9129 45.4089 21.28 44.8986 20.768C44.3884 20.256 43.7555 20 43 20C42.2444 20 41.6115 20.256 41.1013 20.768C40.5911 21.28 40.3351 21.9129 40.3333 22.6667C40.3315 23.4204 40.5875 24.0542 41.1013 24.568C41.6151 25.0818 42.248 25.3369 43 25.3333ZM37.6666 42.6667V32H16.3333V42.6667H37.6666Z" fill="white"/>
</svg>
