<svg width="54" height="48" viewBox="0 0 54 48" fill="none" xmlns="http://www.w3.org/2000/svg">
<path d="M16.3333 48C14.8666 48 13.6115 47.4782 12.5679 46.4347C11.5244 45.3911 11.0017 44.1351 10.9999 42.6667V37.3333H5.66659C4.19992 37.3333 2.94481 36.8116 1.90125 35.768C0.857697 34.7244 0.33503 33.4684 0.333252 32V21.3333C0.333252 19.0667 1.11103 17.1671 2.66659 15.6347C4.22214 14.1022 6.11103 13.3351 8.33325 13.3333H45.6666C47.9333 13.3333 49.8337 14.1004 51.3679 15.6347C52.9021 17.1689 53.6684 19.0684 53.6666 21.3333V32C53.6666 33.4667 53.1448 34.7227 52.1013 35.768C51.0577 36.8133 49.8017 37.3351 48.3333 37.3333H42.9999V42.6667C42.9999 44.1333 42.4781 45.3893 41.4346 46.4347C40.391 47.48 39.135 48.0018 37.6666 48H16.3333ZM5.66659 32H10.9999C10.9999 30.5333 11.5226 29.2782 12.5679 28.2347C13.6133 27.1911 14.8684 26.6684 16.3333 26.6667H37.6666C39.1333 26.6667 40.3893 27.1893 41.4346 28.2347C42.4799 29.28 43.0017 30.5351 42.9999 32H48.3333V21.3333C48.3333 20.5778 48.0773 19.9449 47.5653 19.4347C47.0533 18.9244 46.4204 18.6684 45.6666 18.6667H8.33325C7.5777 18.6667 6.94481 18.9227 6.43459 19.4347C5.92436 19.9467 5.66836 20.5796 5.66659 21.3333V32ZM37.6666 13.3333V5.33333H16.3333V13.3333H10.9999V5.33333C10.9999 3.86667 11.5226 2.61156 12.5679 1.568C13.6133 0.524445 14.8684 0.00177778 16.3333 0H37.6666C39.1333 0 40.3893 0.522667 41.4346 1.568C42.4799 2.61333 43.0017 3.86844 42.9999 5.33333V13.3333H37.6666ZM42.9999 25.3333C43.7555 25.3333 44.3893 25.0773 44.9013 24.5653C45.4132 24.0533 45.6684 23.4204 45.6666 22.6667C45.6648 21.9129 45.4088 21.28 44.8986 20.768C44.3884 20.256 43.7555 20 42.9999 20C42.2444 20 41.6115 20.256 41.1013 20.768C40.591 21.28 40.335 21.9129 40.3333 22.6667C40.3315 23.4204 40.5875 24.0542 41.1013 24.568C41.615 25.0818 42.2479 25.3369 42.9999 25.3333ZM37.6666 42.6667V32H16.3333V42.6667H37.6666Z" fill="#00675B"/>
</svg>
