<svg width="48" height="48" viewBox="0 0 48 48" fill="none" xmlns="http://www.w3.org/2000/svg">
<path d="M0 42.6667V5.33333C0 3.86667 0.522667 2.61156 1.568 1.568C2.61333 0.524445 3.86844 0.00177778 5.33333 0H42.6667C44.1333 0 45.3893 0.522667 46.4347 1.568C47.48 2.61333 48.0018 3.86844 48 5.33333V42.6667C48 44.1333 47.4782 45.3893 46.4347 46.4347C45.3911 47.48 44.1351 48.0018 42.6667 48H5.33333C3.86667 48 2.61156 47.4782 1.568 46.4347C0.524445 45.3911 0.00177778 44.1351 0 42.6667ZM26.6667 26.6667V42.6667H42.6667V26.6667H26.6667ZM26.6667 21.3333H42.6667V5.33333H26.6667V21.3333ZM21.3333 21.3333V5.33333H5.33333V21.3333H21.3333ZM21.3333 26.6667H5.33333V42.6667H21.3333V26.6667Z" fill="white"/>
</svg>
