<svg width="48" height="48" viewBox="0 0 48 48" fill="none" xmlns="http://www.w3.org/2000/svg">
<path d="M7.99995 13.3333L24 21.3333L40 13.3333L24 5.33333L7.99995 13.3333ZM25.304 0.309329L46.6186 11.1787C47.9146 11.84 48.3813 13.3387 47.6613 14.5307C47.4102 14.9401 47.0501 15.2716 46.6213 15.488L25.304 26.3573C24.8993 26.5605 24.4527 26.6662 24 26.6662C23.5472 26.6662 23.1006 26.5605 22.6959 26.3573L1.38128 15.488C0.0852812 14.8267 -0.381385 13.328 0.338615 12.136C0.589675 11.7265 0.949788 11.395 1.37861 11.1787L22.6959 0.309329C23.5066 -0.104005 24.4933 -0.104005 25.304 0.309329ZM25.304 37.0187C24.9005 37.2259 24.4535 37.3341 24 37.3341C23.5464 37.3341 23.0994 37.2259 22.6959 37.0187L1.38128 25.96C0.0852812 25.288 -0.381385 23.7627 0.338615 22.552C0.590614 22.1393 0.950106 21.8028 1.37861 21.5787C1.68966 21.4174 2.0349 21.3332 2.38528 21.3332C2.73566 21.3332 3.08091 21.4174 3.39195 21.5787L22.6986 31.592C23.5066 32.0133 24.4933 32.0133 25.304 31.592L44.608 21.5787C44.9187 21.4178 45.2634 21.3339 45.6133 21.3339C45.9632 21.3339 46.3079 21.4178 46.6186 21.5787C47.9146 22.2507 48.3813 23.776 47.6613 24.9867C47.4093 25.3994 47.0498 25.7359 46.6213 25.96L25.304 37.0187ZM25.304 47.6853C24.9005 47.8926 24.4535 48.0007 24 48.0007C23.5464 48.0007 23.0994 47.8926 22.6959 47.6853L1.38128 36.6267C0.0852812 35.9547 -0.381385 34.4293 0.338615 33.2187C0.590614 32.8059 0.950106 32.4695 1.37861 32.2453C1.68966 32.084 2.0349 31.9998 2.38528 31.9998C2.73566 31.9998 3.08091 32.084 3.39195 32.2453L22.6986 42.2587C23.5066 42.68 24.4933 42.68 25.304 42.2587L44.608 32.2453C44.9187 32.0845 45.2634 32.0005 45.6133 32.0005C45.9632 32.0005 46.3079 32.0845 46.6186 32.2453C47.9146 32.9173 48.3813 34.4427 47.6613 35.6533C47.4093 36.0661 47.0498 36.4025 46.6213 36.6267L25.304 47.6853Z" fill="#009688"/>
</svg>
