<svg width="52" height="52" viewBox="0 0 52 52" fill="none" xmlns="http://www.w3.org/2000/svg">
<path d="M26 0C40.36 0 52 11.64 52 26C52 40.36 40.36 52 26 52C11.64 52 0 40.36 0 26C0 11.64 11.64 0 26 0ZM14.6773 7.13333L21.6453 14.1013C23.0399 13.5893 24.5144 13.3292 26 13.3333C27.4856 13.3292 28.9601 13.5893 30.3547 14.1013L37.3227 7.13333C33.9049 5.07558 29.9894 3.99203 26 4C22.0106 3.99203 18.0951 5.07558 14.6773 7.13333ZM12.4427 8.672C11.0384 9.77233 9.77233 11.0384 8.672 12.4427L15.3573 19.128C16.3359 17.6213 17.6206 16.3375 19.128 15.36L12.4427 8.672ZM14.1013 21.6453L7.13333 14.6773C5.07558 18.0951 3.99203 22.0106 4 26C3.99203 29.9894 5.07558 33.9049 7.13333 37.3227L14.1013 30.3547C13.5893 28.9601 13.3292 27.4856 13.3333 26C13.3333 24.4693 13.6053 23.0027 14.1013 21.6453ZM15.3547 32.872L8.672 39.5573C9.77233 40.9616 11.0384 42.2277 12.4427 43.328L19.128 36.6427C17.6203 35.6644 16.3329 34.3797 15.3547 32.872ZM21.648 37.8987L14.68 44.8667C18.097 46.924 22.0115 48.0075 26 48C29.9894 48.008 33.9049 46.9244 37.3227 44.8667L30.3547 37.8987C28.9947 38.3947 27.528 38.6667 26 38.6667C24.5144 38.6708 23.0399 38.4107 21.6453 37.8987M32.872 36.6453L39.5573 43.328C40.9616 42.2277 42.2277 40.9616 43.328 39.5573L36.6427 32.872C35.6644 34.3797 34.3797 35.6671 32.872 36.6453ZM37.8987 30.352L44.8667 37.32C46.924 33.903 48.0075 29.9885 48 26C48.008 22.0106 46.9244 18.0951 44.8667 14.6773L37.8987 21.6453C38.3947 23.0027 38.6667 24.4693 38.6667 26C38.6667 27.5307 38.3947 28.9973 37.8987 30.3547M36.6427 19.128L43.328 12.4427C42.2277 11.0384 40.9616 9.77233 39.5573 8.672L32.872 15.3573C34.3797 16.3356 35.6644 17.6203 36.6427 19.128ZM17.3333 26C17.3333 28.2985 18.2464 30.5029 19.8717 32.1283C21.4971 33.7536 23.7015 34.6667 26 34.6667C28.2985 34.6667 30.5029 33.7536 32.1283 32.1283C33.7536 30.5029 34.6667 28.2985 34.6667 26C34.6667 23.7015 33.7536 21.4971 32.1283 19.8717C30.5029 18.2464 28.2985 17.3333 26 17.3333C23.7015 17.3333 21.4971 18.2464 19.8717 19.8717C18.2464 21.4971 17.3333 23.7015 17.3333 26Z" fill="#00675B"/>
</svg>
