<svg width="48" height="40" viewBox="0 0 48 40" fill="none" xmlns="http://www.w3.org/2000/svg">
<path d="M24 0C10.766 0 2.80206e-06 10.766 2.80206e-06 24C-0.00269518 29.5694 1.94302 34.9644 5.5 39.25L6.062 40H41.94L42.502 39.25C46.0583 34.9641 48.0033 29.5692 48 24C48 10.766 37.234 0 24 0ZM24 4C35.07 4 44 12.93 44 24C44 28.532 42.414 32.648 39.874 36H8.126C5.586 32.648 4 28.532 4 24C4 12.93 12.93 4 24 4ZM24 6C22.9 6 22 6.9 22 8C22 9.1 22.9 10 24 10C25.1 10 26 9.1 26 8C26 6.9 25.1 6 24 6ZM16 8.126C14.9 8.126 14 9.024 14 10.126C14 11.228 14.9 12.126 16 12.126C17.1 12.126 18 11.226 18 10.126C18 9.024 17.1 8.126 16 8.126ZM32 8.126C30.9 8.126 30 9.024 30 10.126C30 11.228 30.9 12.126 32 12.126C33.1 12.126 34 11.226 34 10.126C34 9.024 33.1 8.126 32 8.126ZM10.124 14C9.024 14 8.124 14.9 8.124 16C8.124 17.1 9.024 18 10.124 18C11.226 18 12.124 17.1 12.124 16C12.124 14.9 11.226 14 10.124 14ZM37.312 14.062L26 20.562C25.3945 20.2018 24.7045 20.0079 24 20C22.9391 20 21.9217 20.4214 21.1716 21.1716C20.4214 21.9217 20 22.9391 20 24C20 25.0609 20.4214 26.0783 21.1716 26.8284C21.9217 27.5786 22.9391 28 24 28C25.0502 28.0001 26.0583 27.5872 26.8067 26.8504C27.5551 26.1136 27.9837 25.1121 28 24.062V24L39.312 17.562L37.312 14.062ZM8 22C6.9 22 6 22.9 6 24C6 25.1 6.9 26 8 26C9.1 26 10 25.1 10 24C10 22.9 9.1 22 8 22ZM40 22C38.9 22 38 22.9 38 24C38 25.1 38.9 26 40 26C41.1 26 42 25.1 42 24C42 22.9 41.1 22 40 22ZM10.124 30C9.024 30 8.124 30.9 8.124 32C8.124 33.1 9.024 34 10.124 34C11.226 34 12.124 33.1 12.124 32C12.124 30.9 11.226 30 10.124 30ZM37.876 30C36.774 30 35.876 30.9 35.876 32C35.876 33.1 36.774 34 37.876 34C38.978 34 39.876 33.1 39.876 32C39.876 30.9 38.976 30 37.876 30Z" fill="#009688"/>
</svg>
