<svg width="56" height="50" viewBox="0 0 56 50" fill="none" xmlns="http://www.w3.org/2000/svg">
<path d="M54 22H30V16H32C33.0609 16 34.0783 15.5786 34.8284 14.8284C35.5786 14.0783 36 13.0609 36 12V4C36 2.93913 35.5786 1.92172 34.8284 1.17157C34.0783 0.421427 33.0609 0 32 0H24C22.9391 0 21.9217 0.421427 21.1716 1.17157C20.4214 1.92172 20 2.93913 20 4V12C20 13.0609 20.4214 14.0783 21.1716 14.8284C21.9217 15.5786 22.9391 16 24 16H26V22H2C1.46957 22 0.960859 22.2107 0.585786 22.5858C0.210714 22.9609 0 23.4696 0 24C0 24.5304 0.210714 25.0391 0.585786 25.4142C0.960859 25.7893 1.46957 26 2 26H10V34H8C6.93913 34 5.92172 34.4214 5.17157 35.1716C4.42143 35.9217 4 36.9391 4 38V46C4 47.0609 4.42143 48.0783 5.17157 48.8284C5.92172 49.5786 6.93913 50 8 50H16C17.0609 50 18.0783 49.5786 18.8284 48.8284C19.5786 48.0783 20 47.0609 20 46V38C20 36.9391 19.5786 35.9217 18.8284 35.1716C18.0783 34.4214 17.0609 34 16 34H14V26H42V34H40C38.9391 34 37.9217 34.4214 37.1716 35.1716C36.4214 35.9217 36 36.9391 36 38V46C36 47.0609 36.4214 48.0783 37.1716 48.8284C37.9217 49.5786 38.9391 50 40 50H48C49.0609 50 50.0783 49.5786 50.8284 48.8284C51.5786 48.0783 52 47.0609 52 46V38C52 36.9391 51.5786 35.9217 50.8284 35.1716C50.0783 34.4214 49.0609 34 48 34H46V26H54C54.5304 26 55.0391 25.7893 55.4142 25.4142C55.7893 25.0391 56 24.5304 56 24C56 23.4696 55.7893 22.9609 55.4142 22.5858C55.0391 22.2107 54.5304 22 54 22ZM24 4H32V12H24V4ZM16 46H8V38H16V46ZM48 46H40V38H48V46Z" fill="#00675B"/>
</svg>
