<svg width="48" height="48" viewBox="0 0 48 48" fill="none" xmlns="http://www.w3.org/2000/svg">
<path d="M26.5627 26.5626L43.6667 43.6666M2.83465 1.09865C2.59182 0.996316 2.324 0.968693 2.06539 1.01931C1.80679 1.06992 1.56914 1.19648 1.38281 1.38281C1.19648 1.56914 1.06992 1.80679 1.01931 2.06539C0.968693 2.324 0.996316 2.59182 1.09865 2.83465L18.432 45.4986C18.5387 45.7568 18.7236 45.9749 18.9607 46.1225C19.1978 46.2701 19.4752 46.3396 19.7539 46.3214C20.0326 46.3032 20.2986 46.198 20.5144 46.0208C20.7303 45.8436 20.8852 45.6031 20.9573 45.3333L25.1413 29.112C25.364 28.1649 25.8415 27.2968 26.5221 26.6016C27.2027 25.9064 28.0605 25.4107 29.0027 25.168L45.3333 20.9573C45.6045 20.8869 45.8466 20.7329 46.0252 20.5171C46.2039 20.3014 46.31 20.0348 46.3286 19.7553C46.3472 19.4758 46.2773 19.1975 46.1288 18.9599C45.9803 18.7224 45.7608 18.5377 45.5013 18.432L2.83465 1.09865Z" stroke="#009688" stroke-width="2" stroke-linecap="round" stroke-linejoin="round"/>
</svg>
