<svg width="54" height="46" viewBox="0 0 54 46" fill="none" xmlns="http://www.w3.org/2000/svg">
<path fill-rule="evenodd" clip-rule="evenodd" d="M27 0L46.3973 0.546667C48.0552 0.59374 49.6405 1.23721 50.8622 2.35896C52.0839 3.48071 52.86 5.00547 53.048 6.65333C53.9114 14.1931 53.9114 21.8069 53.048 29.3467C52.86 30.9945 52.0839 32.5193 50.8622 33.641C49.6405 34.7628 48.0552 35.4063 46.3973 35.4533L31.6667 35.8693V41.336H40.3333C40.8638 41.336 41.3725 41.5467 41.7476 41.9218C42.1226 42.2969 42.3333 42.8056 42.3333 43.336C42.3333 43.8664 42.1226 44.3751 41.7476 44.7502C41.3725 45.1253 40.8638 45.336 40.3333 45.336H13.6667C13.1362 45.336 12.6275 45.1253 12.2525 44.7502C11.8774 44.3751 11.6667 43.8664 11.6667 43.336C11.6667 42.8056 11.8774 42.2969 12.2525 41.9218C12.6275 41.5467 13.1362 41.336 13.6667 41.336H22.3333V35.8667L7.60267 35.4507C5.94477 35.4036 4.35949 34.7601 3.13781 33.6384C1.91613 32.5166 1.14004 30.9919 0.952001 29.344C0.0885908 21.8042 0.0885908 14.1905 0.952001 6.65067C1.14004 5.0028 1.91613 3.47805 3.13781 2.3563C4.35949 1.23455 5.94477 0.591073 7.60267 0.544L27 0ZM27 4L7.71733 4.54667C6.27733 4.58667 5.09067 5.67733 4.92533 7.10667C4.0986 14.3454 4.0986 21.6546 4.92533 28.8933C5.09067 30.3227 6.27733 31.4133 7.71733 31.4533L26.9973 32L46.2827 31.4533C47.7227 31.4133 48.9093 30.3227 49.0747 28.8933C49.9014 21.6546 49.9014 14.3454 49.0747 7.10667C48.9953 6.41537 48.6693 5.77588 48.1564 5.30562C47.6435 4.83536 46.9782 4.56588 46.2827 4.54667L27 4Z" fill="white"/>
</svg>
