<svg width="52" height="45" viewBox="0 0 52 45" fill="none" xmlns="http://www.w3.org/2000/svg">
<path d="M39.3333 43C39.3333 38.5813 33.3627 35 26 35C18.6373 35 12.6667 38.5813 12.6667 43M50 35C50 31.72 46.7093 28.9013 42 27.6667M2 35C2 31.72 5.29067 28.9013 10 27.6667M42 16.9627C42.79 16.2642 43.4342 15.4165 43.8954 14.4683C44.3567 13.52 44.6259 12.4899 44.6876 11.4372C44.7493 10.3845 44.6023 9.33004 44.2551 8.33438C43.9078 7.33872 43.3671 6.42153 42.6641 5.63557C41.9611 4.84961 41.1096 4.21039 40.1587 3.75467C39.2078 3.29895 38.1761 3.03572 37.1231 2.98012C36.0701 2.92452 35.0165 3.07765 34.0229 3.43071C33.0292 3.78376 32.1152 4.32977 31.3333 5.03732M10 16.9627C8.4328 15.5444 7.49056 13.5635 7.37912 11.4528C7.26767 9.34205 7.99608 7.27299 9.40522 5.69756C10.8144 4.12214 12.7897 3.16841 14.8998 3.0447C17.0098 2.92099 19.0831 3.63736 20.6667 5.03732M26 27C23.8783 27 21.8434 26.1571 20.3431 24.6568C18.8429 23.1566 18 21.1217 18 19C18 16.8783 18.8429 14.8434 20.3431 13.3431C21.8434 11.8428 23.8783 11 26 11C28.1217 11 30.1566 11.8428 31.6569 13.3431C33.1571 14.8434 34 16.8783 34 19C34 21.1217 33.1571 23.1566 31.6569 24.6568C30.1566 26.1571 28.1217 27 26 27Z" stroke="#009688" stroke-width="4" stroke-linecap="round" stroke-linejoin="round"/>
</svg>
