<svg width="1440" height="733" viewBox="0 0 1440 733" fill="none" xmlns="http://www.w3.org/2000/svg">
<rect x="-1" width="1441" height="724" fill="url(#paint0_linear_191_342)"/>
<path d="M1294.85 512.236C1295.18 511.627 1294.48 511.038 1293.76 511.312C1293.61 511.373 1293.49 511.475 1293.41 511.607C1293.09 512.215 1293.78 512.804 1294.5 512.53C1294.66 512.469 1294.78 512.368 1294.85 512.236Z" fill="#009688" fill-opacity="0.8"/>
<path d="M1376.54 11.8413C1376.88 11.2323 1376.17 10.6437 1375.46 10.9178C1375.3 10.9786 1375.18 11.0801 1375.11 11.2121C1374.79 11.821 1375.48 12.4096 1376.2 12.1356C1376.35 12.0747 1376.47 11.9732 1376.54 11.8413Z" fill="#009688" fill-opacity="0.8"/>
<path d="M634.872 550.206C635.195 549.597 634.501 549.008 633.784 549.282C633.628 549.343 633.509 549.445 633.437 549.576C633.102 550.185 633.808 550.774 634.525 550.5C634.681 550.439 634.8 550.338 634.872 550.206Z" fill="#009688" fill-opacity="0.8"/>
<path d="M620.454 24.0459C620.777 23.437 620.083 22.8484 619.366 23.1224C619.21 23.1833 619.091 23.2847 619.019 23.4167C618.684 24.0256 619.39 24.6142 620.107 24.3402C620.263 24.2793 620.382 24.1778 620.454 24.0459Z" fill="#009688" fill-opacity="0.8"/>
<path d="M157.506 377.983C157.83 377.375 157.135 376.786 156.416 377.06C156.26 377.121 156.14 377.222 156.068 377.354C155.744 377.963 156.44 378.552 157.159 378.278C157.315 378.217 157.435 378.115 157.506 377.983Z" fill="#009688" fill-opacity="0.8"/>
<path d="M399.231 555.871C399.554 555.262 398.861 554.673 398.143 554.947C397.988 555.008 397.868 555.11 397.797 555.242C397.462 555.851 398.167 556.439 398.885 556.165C399.04 556.104 399.16 556.003 399.231 555.871Z" fill="#009688" fill-opacity="0.8"/>
<path d="M563.876 298.825C564.199 298.216 563.504 297.628 562.785 297.902C562.629 297.963 562.509 298.064 562.437 298.196C562.113 298.805 562.809 299.394 563.528 299.12C563.684 299.059 563.804 298.957 563.876 298.825Z" fill="#009688" fill-opacity="0.8"/>
<path d="M350.244 199.275C350.963 199.548 351.659 198.961 351.335 198.354C351.263 198.222 351.143 198.121 350.987 198.06C350.268 197.777 349.573 198.374 349.896 198.982C349.968 199.113 350.088 199.214 350.244 199.275Z" fill="#009688" fill-opacity="0.8"/>
<path d="M1036.95 524.44C1037.27 523.832 1036.57 523.243 1035.85 523.517C1035.7 523.578 1035.58 523.679 1035.51 523.811C1035.18 524.42 1035.88 525.009 1036.6 524.735C1036.75 524.674 1036.87 524.572 1036.95 524.44Z" fill="#009688" fill-opacity="0.8"/>
<path d="M229.846 63.577C230.181 62.9681 229.476 62.3795 228.758 62.6535C228.603 62.7144 228.483 62.8159 228.411 62.9478C228.089 63.5567 228.782 64.1454 229.499 63.8713C229.655 63.8104 229.774 63.709 229.846 63.577Z" fill="#009688" fill-opacity="0.8"/>
<path d="M159.263 267.358C158.929 266.749 159.634 266.161 160.351 266.435C160.507 266.496 160.626 266.597 160.698 266.729C161.021 267.338 160.327 267.927 159.61 267.653C159.455 267.592 159.335 267.49 159.263 267.358Z" fill="#009688" fill-opacity="0.8"/>
<path d="M995.46 563.767C995.137 563.158 995.832 562.569 996.551 562.843C996.707 562.904 996.827 563.006 996.899 563.138C997.223 563.747 996.527 564.335 995.808 564.061C995.652 564 995.532 563.899 995.46 563.767Z" fill="#009688" fill-opacity="0.8"/>
<path d="M1190.22 471.229C1189.9 470.62 1190.59 470.031 1191.31 470.305C1191.47 470.366 1191.59 470.467 1191.66 470.599C1191.98 471.208 1191.29 471.797 1190.57 471.523C1190.41 471.462 1190.29 471.361 1190.22 471.229Z" fill="#009688" fill-opacity="0.8"/>
<path d="M803.232 531.221C802.908 530.612 803.604 530.024 804.323 530.298C804.479 530.358 804.599 530.46 804.671 530.592C804.994 531.201 804.299 531.789 803.58 531.515C803.424 531.455 803.304 531.353 803.232 531.221Z" fill="#009688" fill-opacity="0.8"/>
<path d="M1367.17 140.669C1367.5 140.06 1366.8 139.472 1366.08 139.746C1365.93 139.807 1365.81 139.908 1365.74 140.04C1365.41 140.649 1366.11 141.237 1366.82 140.963C1366.98 140.903 1367.1 140.801 1367.17 140.669Z" fill="#009688" fill-opacity="0.8"/>
<path d="M1349.48 267.026C1349.15 266.417 1349.85 265.828 1350.57 266.102C1350.73 266.163 1350.85 266.265 1350.92 266.396C1351.24 267.005 1350.55 267.594 1349.83 267.32C1349.68 267.259 1349.56 267.158 1349.48 267.026Z" fill="#009688" fill-opacity="0.8"/>
<path d="M1242.5 190.844C1242.82 190.235 1242.12 189.647 1241.41 189.921C1241.25 189.982 1241.13 190.083 1241.06 190.215C1240.73 190.824 1241.43 191.412 1242.15 191.138C1242.3 191.078 1242.42 190.976 1242.5 190.844Z" fill="#009688" fill-opacity="0.8"/>
<path d="M787.555 193.556C787.89 192.947 787.185 192.359 786.467 192.633C786.312 192.693 786.192 192.795 786.12 192.927C785.798 193.536 786.491 194.124 787.208 193.85C787.364 193.79 787.483 193.688 787.555 193.556Z" fill="#009688" fill-opacity="0.8"/>
<path d="M882.695 224.973C882.36 224.364 883.066 223.775 883.783 224.049C883.938 224.11 884.058 224.212 884.13 224.343C884.453 224.952 883.759 225.541 883.042 225.267C882.886 225.206 882.767 225.105 882.695 224.973Z" fill="#009688" fill-opacity="0.8"/>
<path d="M1233.74 315.158C1233.41 314.549 1234.11 313.96 1234.83 314.234C1234.99 314.295 1235.1 314.397 1235.18 314.529C1235.5 315.137 1234.81 315.726 1234.09 315.452C1233.93 315.391 1233.81 315.29 1233.74 315.158Z" fill="#009688" fill-opacity="0.8"/>
<path d="M1375.65 366.388C1374.93 366.662 1374.24 366.074 1374.56 365.465C1374.63 365.333 1374.75 365.231 1374.91 365.171C1375.63 364.897 1376.32 365.485 1376 366.094C1375.93 366.226 1375.81 366.328 1375.65 366.388Z" fill="#009688" fill-opacity="0.8"/>
<path d="M899.275 260.693C898.951 260.084 899.647 259.496 900.366 259.77C900.522 259.83 900.642 259.932 900.714 260.064C901.037 260.673 900.342 261.261 899.623 260.987C899.467 260.926 899.347 260.825 899.275 260.693Z" fill="#009688" fill-opacity="0.8"/>
<path d="M537.322 523.084C536.987 522.475 537.693 521.887 538.41 522.161C538.565 522.222 538.685 522.323 538.757 522.455C539.08 523.064 538.386 523.653 537.669 523.379C537.513 523.318 537.394 523.216 537.322 523.084Z" fill="#009688" fill-opacity="0.8"/>
<path d="M1109.03 178.64C1109.36 178.031 1108.66 177.442 1107.94 177.716C1107.79 177.777 1107.67 177.878 1107.6 178.01C1107.26 178.619 1107.97 179.208 1108.69 178.934C1108.84 178.873 1108.96 178.771 1109.03 178.64Z" fill="#009688" fill-opacity="0.8"/>
<path d="M1011.48 151.518C1011.15 150.909 1011.85 150.32 1012.57 150.594C1012.73 150.655 1012.85 150.756 1012.92 150.888C1013.24 151.497 1012.55 152.086 1011.83 151.812C1011.68 151.751 1011.56 151.65 1011.48 151.518Z" fill="#009688" fill-opacity="0.8"/>
<path d="M318.281 426.17C317.957 425.561 318.652 424.972 319.372 425.246C319.528 425.307 319.647 425.409 319.719 425.541C320.043 426.149 319.348 426.738 318.628 426.464C318.473 426.403 318.353 426.302 318.281 426.17Z" fill="#009688" fill-opacity="0.8"/>
<path d="M83.7647 0H-1V61M83.7647 0V61M83.7647 0H168.529M83.7647 61H-1M83.7647 61H168.529M83.7647 61V122M-1 61V122M168.529 0V61M168.529 0H253.294M168.529 61H253.294M168.529 61V122M253.294 0V61M253.294 0H338.059M253.294 61H338.059M253.294 61V122M338.059 0V61M338.059 0H422.824M338.059 61H422.824M338.059 61V122M422.824 0V61M422.824 0H507.588M422.824 61H507.588M422.824 61V122M507.588 0V61M507.588 0H592.353M507.588 61H592.353M507.588 61V122M592.353 0V61M592.353 0H677.118M592.353 61H677.118M592.353 61V122M677.118 0V61M677.118 0H761.882M677.118 61H761.882M677.118 61V122M761.882 0V61M761.882 0H846.647M761.882 61H846.647M761.882 61V122M846.647 0V61M846.647 0H931.412M846.647 61H931.412M846.647 61V122M931.412 0V61M931.412 0H1016.18M931.412 61H1016.18M931.412 61V122M1016.18 0V61M1016.18 0H1100.94M1016.18 61H1100.94M1016.18 61V122M1100.94 0V61M1100.94 0H1185.71M1100.94 61H1185.71M1100.94 61V122M1185.71 0V61M1185.71 0H1270.47M1185.71 61H1270.47M1185.71 61V122M1270.47 0V61M1270.47 0H1355.24M1270.47 61H1355.24M1270.47 61V122M1355.24 0V61M1355.24 0H1440V61M1355.24 61H1440M1355.24 61V122M1440 61V122M83.7647 122H-1M83.7647 122H168.529M83.7647 122V183M-1 122V183M168.529 122H253.294M168.529 122V183M253.294 122H338.059M253.294 122V183M338.059 122H422.824M338.059 122V183M422.824 122H507.588M422.824 122V183M507.588 122H592.353M507.588 122V183M592.353 122H677.118M592.353 122V183M677.118 122H761.882M677.118 122V183M761.882 122H846.647M761.882 122V183M846.647 122H931.412M846.647 122V183M931.412 122H1016.18M931.412 122V183M1016.18 122H1100.94M1016.18 122V183M1100.94 122H1185.71M1100.94 122V183M1185.71 122H1270.47M1185.71 122V183M1270.47 122H1355.24M1270.47 122V183M1355.24 122H1440M1355.24 122V183M1440 122V183M83.7647 183H-1M83.7647 183H168.529M83.7647 183V244M-1 183V244M168.529 183H253.294M168.529 183V244M253.294 183H338.059M253.294 183V244M338.059 183H422.824M338.059 183V244M422.824 183H507.588M422.824 183V244M507.588 183H592.353M507.588 183V244M592.353 183H677.118M592.353 183V244M677.118 183H761.882M677.118 183V244M761.882 183H846.647M761.882 183V244M846.647 183H931.412M846.647 183V244M931.412 183H1016.18M931.412 183V244M1016.18 183H1100.94M1016.18 183V244M1100.94 183H1185.71M1100.94 183V244M1185.71 183H1270.47M1185.71 183V244M1270.47 183H1355.24M1270.47 183V244M1355.24 183H1440M1355.24 183V244M1440 183V244M83.7647 244H-1M83.7647 244H168.529M83.7647 244V305M-1 244V305M168.529 244H253.294M168.529 244V305M253.294 244H338.059M253.294 244V305M338.059 244H422.824M338.059 244V305M422.824 244H507.588M422.824 244V305M507.588 244H592.353M507.588 244V305M592.353 244H677.118M592.353 244V305M677.118 244H761.882M677.118 244V305M761.882 244H846.647M761.882 244V305M846.647 244H931.412M846.647 244V305M931.412 244H1016.18M931.412 244V305M1016.18 244H1100.94M1016.18 244V305M1100.94 244H1185.71M1100.94 244V305M1185.71 244H1270.47M1185.71 244V305M1270.47 244H1355.24M1270.47 244V305M1355.24 244H1440M1355.24 244V305M1440 244V305M83.7647 305H-1M83.7647 305H168.529M83.7647 305V366M-1 305V366M168.529 305H253.294M168.529 305V366M253.294 305H338.059M253.294 305V366M338.059 305H422.824M338.059 305V366M422.824 305H507.588M422.824 305V366M507.588 305H592.353M507.588 305V366M592.353 305H677.118M592.353 305V366M677.118 305H761.882M677.118 305V366M761.882 305H846.647M761.882 305V366M846.647 305H931.412M846.647 305V366M931.412 305H1016.18M931.412 305V366M1016.18 305H1100.94M1016.18 305V366M1100.94 305H1185.71M1100.94 305V366M1185.71 305H1270.47M1185.71 305V366M1270.47 305H1355.24M1270.47 305V366M1355.24 305H1440M1355.24 305V366M1440 305V366M83.7647 366H-1M83.7647 366H168.529M83.7647 366V427M-1 366V427M168.529 366H253.294M168.529 366V427M253.294 366H338.059M253.294 366V427M338.059 366H422.824M338.059 366V427M422.824 366H507.588M422.824 366V427M507.588 366H592.353M507.588 366V427M592.353 366H677.118M592.353 366V427M677.118 366H761.882M677.118 366V427M761.882 366H846.647M761.882 366V427M846.647 366H931.412M846.647 366V427M931.412 366H1016.18M931.412 366V427M1016.18 366H1100.94M1016.18 366V427M1100.94 366H1185.71M1100.94 366V427M1185.71 366H1270.47M1185.71 366V427M1270.47 366H1355.24M1270.47 366V427M1355.24 366H1440M1355.24 366V427M1440 366V427M83.7647 427H-1M83.7647 427H168.529M83.7647 427V488M-1 427V488M168.529 427H253.294M168.529 427V488M253.294 427H338.059M253.294 427V488M338.059 427H422.824M338.059 427V488M422.824 427H507.588M422.824 427V488M507.588 427H592.353M507.588 427V488M592.353 427H677.118M592.353 427V488M677.118 427H761.882M677.118 427V488M761.882 427H846.647M761.882 427V488M846.647 427H931.412M846.647 427V488M931.412 427H1016.18M931.412 427V488M1016.18 427H1100.94M1016.18 427V488M1100.94 427H1185.71M1100.94 427V488M1185.71 427H1270.47M1185.71 427V488M1270.47 427H1355.24M1270.47 427V488M1355.24 427H1440M1355.24 427V488M1440 427V488M83.7647 488H-1M83.7647 488H168.529M83.7647 488V549M-1 488V549M168.529 488H253.294M168.529 488V549M253.294 488H338.059M253.294 488V549M338.059 488H422.824M338.059 488V549M422.824 488H507.588M422.824 488V549M507.588 488H592.353M507.588 488V549M592.353 488H677.118M592.353 488V549M677.118 488H761.882M677.118 488V549M761.882 488H846.647M761.882 488V549M846.647 488H931.412M846.647 488V549M931.412 488H1016.18M931.412 488V549M1016.18 488H1100.94M1016.18 488V549M1100.94 488H1185.71M1100.94 488V549M1185.71 488H1270.47M1185.71 488V549M1270.47 488H1355.24M1270.47 488V549M1355.24 488H1440M1355.24 488V549M1440 488V549M83.7647 549H-1M83.7647 549H168.529M83.7647 549V610M-1 549V610M168.529 549H253.294M168.529 549V610M253.294 549H338.059M253.294 549V610M338.059 549H422.824M338.059 549V610M422.824 549H507.588M422.824 549V610M507.588 549H592.353M507.588 549V610M592.353 549H677.118M592.353 549V610M677.118 549H761.882M677.118 549V610M761.882 549H846.647M761.882 549V610M846.647 549H931.412M846.647 549V610M931.412 549H1016.18M931.412 549V610M1016.18 549H1100.94M1016.18 549V610M1100.94 549H1185.71M1100.94 549V610M1185.71 549H1270.47M1185.71 549V610M1270.47 549H1355.24M1270.47 549V610M1355.24 549H1440M1355.24 549V610M1440 549V610M83.7647 610H-1M83.7647 610H168.529M83.7647 610V671M-1 610V671M168.529 610H253.294M168.529 610V671M253.294 610H338.059M253.294 610V671M338.059 610H422.824M338.059 610V671M422.824 610H507.588M422.824 610V671M507.588 610H592.353M507.588 610V671M592.353 610H677.118M592.353 610V671M677.118 610H761.882M677.118 610V671M761.882 610H846.647M761.882 610V671M846.647 610H931.412M846.647 610V671M931.412 610H1016.18M931.412 610V671M1016.18 610H1100.94M1016.18 610V671M1100.94 610H1185.71M1100.94 610V671M1185.71 610H1270.47M1185.71 610V671M1270.47 610H1355.24M1270.47 610V671M1355.24 610H1440M1355.24 610V671M1440 610V671M83.7647 671H-1M83.7647 671H168.529M83.7647 671V732M-1 671V732H83.7647M168.529 671H253.294M168.529 671V732M253.294 671H338.059M253.294 671V732M338.059 671H422.824M338.059 671V732M422.824 671H507.588M422.824 671V732M507.588 671H592.353M507.588 671V732M592.353 671H677.118M592.353 671V732M677.118 671H761.882M677.118 671V732M761.882 671H846.647M761.882 671V732M846.647 671H931.412M846.647 671V732M931.412 671H1016.18M931.412 671V732M1016.18 671H1100.94M1016.18 671V732M1100.94 671H1185.71M1100.94 671V732M1185.71 671H1270.47M1185.71 671V732M1270.47 671H1355.24M1270.47 671V732M1355.24 671H1440M1355.24 671V732M1440 671V732H1355.24M83.7647 732H168.529M168.529 732H253.294M253.294 732H338.059M338.059 732H422.824M422.824 732H507.588M507.588 732H592.353M592.353 732H677.118M677.118 732H761.882M761.882 732H846.647M846.647 732H931.412M931.412 732H1016.18M1016.18 732H1100.94M1100.94 732H1185.71M1185.71 732H1270.47M1270.47 732H1355.24" stroke="url(#paint1_radial_191_342)" stroke-opacity="0.08" stroke-width="1.91704"/>
<defs>
<linearGradient id="paint0_linear_191_342" x1="839.5" y1="-1176.79" x2="785.187" y2="754.639" gradientUnits="userSpaceOnUse">
<stop stop-color="#009688" stop-opacity="0.63"/>
<stop offset="0.156667" stop-color="#009688"/>
<stop offset="0.456667" stop-color="#009688"/>
<stop offset="0.606667" stop-color="white"/>
</linearGradient>
<radialGradient id="paint1_radial_191_342" cx="0" cy="0" r="1" gradientUnits="userSpaceOnUse" gradientTransform="translate(719.5 385.551) rotate(90) scale(345.667 721.587)">
<stop offset="0.045" stop-color="#009688"/>
<stop offset="0.985" stop-color="#009688" stop-opacity="0"/>
</radialGradient>
</defs>
</svg>
