<svg width="1440" height="741" viewBox="0 0 1440 741" fill="none" xmlns="http://www.w3.org/2000/svg">
<g filter="url(#filter0_d_13_531)">
<rect width="1441" height="724" fill="url(#paint0_linear_13_531)"/>
<path d="M232.751 452.371C233.074 451.762 232.38 451.173 231.663 451.447C231.507 451.508 231.388 451.609 231.316 451.741C230.981 452.35 231.687 452.939 232.404 452.665C232.56 452.604 232.679 452.503 232.751 452.371Z" fill="white" fill-opacity="0.1"/>
<path d="M808.135 487.629C808.459 487.02 807.764 486.431 807.045 486.705C806.889 486.766 806.769 486.868 806.697 487C806.373 487.609 807.069 488.197 807.788 487.923C807.944 487.862 808.064 487.761 808.135 487.629Z" fill="white" fill-opacity="0.1"/>
<path d="M683.927 429.515C684.25 428.906 683.556 428.317 682.839 428.591C682.683 428.652 682.564 428.753 682.492 428.885C682.157 429.494 682.863 430.083 683.58 429.809C683.735 429.748 683.855 429.647 683.927 429.515Z" fill="white" fill-opacity="0.1"/>
<path d="M515.221 150.289C515.556 149.68 514.851 149.091 514.133 149.365C513.978 149.426 513.858 149.528 513.786 149.66C513.464 150.268 514.157 150.857 514.875 150.583C515.03 150.522 515.15 150.421 515.221 150.289Z" fill="white" fill-opacity="0.1"/>
<path d="M619.262 134.658C619.597 134.051 618.892 133.454 618.174 133.737C618.019 133.798 617.899 133.899 617.828 134.031C617.505 134.638 618.198 135.225 618.916 134.952C619.071 134.891 619.191 134.79 619.262 134.658Z" fill="white" fill-opacity="0.1"/>
<path d="M1295.85 512.236C1296.18 511.627 1295.48 511.038 1294.76 511.312C1294.61 511.373 1294.49 511.475 1294.41 511.607C1294.09 512.215 1294.78 512.804 1295.5 512.53C1295.66 512.469 1295.78 512.368 1295.85 512.236Z" fill="white" fill-opacity="0.8"/>
<path d="M1438.37 546.983C1438.71 546.374 1438 545.785 1437.28 546.059C1437.13 546.12 1437.01 546.222 1436.94 546.354C1436.61 546.962 1437.31 547.551 1438.02 547.277C1438.18 547.216 1438.3 547.115 1438.37 546.983Z" fill="white" fill-opacity="0.1"/>
<path d="M632.667 274.922C632.99 274.313 632.296 273.724 631.579 273.998C631.423 274.059 631.304 274.16 631.232 274.292C630.897 274.901 631.603 275.49 632.32 275.216C632.476 275.155 632.595 275.053 632.667 274.922Z" fill="white" fill-opacity="0.1"/>
<path d="M1037.95 476.978C1038.27 476.369 1037.57 475.78 1036.85 476.054C1036.7 476.115 1036.58 476.216 1036.51 476.348C1036.18 476.957 1036.88 477.546 1037.6 477.272C1037.75 477.211 1037.87 477.109 1037.95 476.978Z" fill="white" fill-opacity="0.1"/>
<path d="M820.69 424.146C821.025 423.537 820.319 422.949 819.602 423.223C819.447 423.284 819.327 423.385 819.255 423.517C818.932 424.126 819.626 424.715 820.343 424.441C820.499 424.38 820.618 424.278 820.69 424.146Z" fill="white" fill-opacity="0.1"/>
<path d="M412.97 505.153C413.293 504.544 412.599 503.956 411.882 504.23C411.726 504.291 411.607 504.392 411.535 504.524C411.2 505.133 411.906 505.722 412.623 505.448C412.778 505.387 412.898 505.285 412.97 505.153Z" fill="white" fill-opacity="0.1"/>
<path d="M1377.54 11.8413C1377.88 11.2323 1377.17 10.6437 1376.46 10.9178C1376.3 10.9786 1376.18 11.0801 1376.11 11.2121C1375.79 11.821 1376.48 12.4096 1377.2 12.1356C1377.35 12.0747 1377.47 11.9732 1377.54 11.8413Z" fill="white" fill-opacity="0.8"/>
<path d="M635.872 550.206C636.195 549.597 635.501 549.008 634.784 549.282C634.629 549.343 634.509 549.445 634.437 549.576C634.102 550.185 634.808 550.774 635.525 550.5C635.681 550.439 635.8 550.338 635.872 550.206Z" fill="white" fill-opacity="0.8"/>
<path d="M424.417 74.2209C424.751 73.612 424.046 73.0233 423.329 73.2974C423.173 73.3583 423.054 73.4597 422.982 73.5917C422.659 74.2006 423.352 74.7892 424.07 74.5152C424.225 74.4543 424.345 74.3528 424.417 74.2209Z" fill="white" fill-opacity="0.1"/>
<path d="M621.454 24.0459C621.777 23.437 621.083 22.8484 620.366 23.1224C620.211 23.1833 620.091 23.2847 620.019 23.4167C619.684 24.0256 620.39 24.6142 621.107 24.3402C621.263 24.2793 621.382 24.1778 621.454 24.0459Z" fill="white" fill-opacity="0.8"/>
<path d="M158.507 377.983C158.83 377.375 158.135 376.786 157.416 377.06C157.26 377.121 157.14 377.222 157.068 377.354C156.744 377.963 157.44 378.552 158.159 378.278C158.315 378.217 158.435 378.115 158.507 377.983Z" fill="white" fill-opacity="0.8"/>
<path d="M254.01 351.06C254.345 350.452 253.64 349.863 252.922 350.137C252.767 350.198 252.647 350.299 252.576 350.431C252.253 351.04 252.946 351.629 253.664 351.355C253.819 351.294 253.939 351.192 254.01 351.06Z" fill="white" fill-opacity="0.1"/>
<path d="M267.434 193.556C267.758 192.947 267.063 192.359 266.343 192.633C266.188 192.693 266.068 192.795 265.996 192.927C265.672 193.536 266.367 194.124 267.087 193.85C267.242 193.79 267.362 193.688 267.434 193.556Z" fill="white" fill-opacity="0.1"/>
<path d="M256.222 265.429C256.544 264.82 255.851 264.231 255.134 264.505C254.978 264.566 254.859 264.668 254.787 264.8C254.452 265.409 255.158 265.997 255.875 265.723C256.03 265.662 256.15 265.561 256.222 265.429Z" fill="white" fill-opacity="0.1"/>
<path d="M400.231 555.871C400.554 555.262 399.861 554.673 399.143 554.947C398.988 555.008 398.868 555.11 398.797 555.242C398.462 555.851 399.167 556.439 399.885 556.165C400.04 556.104 400.16 556.003 400.231 555.871Z" fill="white" fill-opacity="0.8"/>
<path d="M618.714 353.208C619.037 352.599 618.342 352.01 617.623 352.284C617.467 352.345 617.347 352.447 617.275 352.579C616.951 353.188 617.647 353.776 618.366 353.502C618.522 353.441 618.642 353.34 618.714 353.208Z" fill="white" fill-opacity="0.1"/>
<path d="M564.876 298.825C565.199 298.216 564.504 297.628 563.785 297.902C563.629 297.963 563.509 298.064 563.437 298.196C563.113 298.805 563.809 299.394 564.528 299.12C564.684 299.059 564.804 298.957 564.876 298.825Z" fill="white" fill-opacity="0.8"/>
<path d="M351.244 199.275C351.963 199.548 352.659 198.961 352.335 198.354C352.263 198.222 352.143 198.121 351.987 198.06C351.268 197.777 350.573 198.374 350.896 198.982C350.968 199.113 351.088 199.214 351.244 199.275Z" fill="white" fill-opacity="0.8"/>
<path d="M418.642 403.126C418.964 402.517 418.271 401.929 417.554 402.203C417.398 402.263 417.279 402.365 417.207 402.497C416.872 403.106 417.577 403.694 418.295 403.42C418.45 403.359 418.57 403.258 418.642 403.126Z" fill="white" fill-opacity="0.1"/>
<path d="M924.212 462.061C924.535 461.452 923.841 460.863 923.124 461.137C922.968 461.198 922.849 461.3 922.777 461.432C922.442 462.041 923.148 462.629 923.865 462.355C924.021 462.294 924.14 462.193 924.212 462.061Z" fill="white" fill-opacity="0.1"/>
<path d="M1146.88 566.476C1147.2 565.869 1146.5 565.282 1145.79 565.555C1145.63 565.616 1145.51 565.717 1145.44 565.849C1145.11 566.456 1145.81 567.053 1146.53 566.77C1146.68 566.709 1146.8 566.608 1146.88 566.476Z" fill="white" fill-opacity="0.1"/>
<path d="M1037.95 524.44C1038.27 523.832 1037.57 523.243 1036.85 523.517C1036.7 523.578 1036.58 523.679 1036.51 523.811C1036.18 524.42 1036.88 525.009 1037.6 524.735C1037.75 524.674 1037.87 524.572 1037.95 524.44Z" fill="white" fill-opacity="0.8"/>
<path d="M607.757 120.042C608.08 119.433 607.386 118.845 606.669 119.119C606.513 119.18 606.394 119.281 606.322 119.413C605.987 120.022 606.693 120.611 607.41 120.337C607.565 120.276 607.685 120.174 607.757 120.042Z" fill="white" fill-opacity="0.1"/>
<path d="M155.302 11.8386C155.625 11.2313 154.931 10.6443 154.214 10.9175C154.058 10.9783 153.939 11.0795 153.867 11.2111C153.532 11.8184 154.238 12.4155 154.955 12.1321C155.11 12.0714 155.23 11.9702 155.302 11.8386Z" fill="white" fill-opacity="0.1"/>
<path d="M1052.36 26.7579C1052.69 26.149 1051.99 25.5604 1051.27 25.8344C1051.12 25.8953 1051 25.9968 1050.92 26.1287C1050.6 26.7376 1051.3 27.3263 1052.01 27.0522C1052.17 26.9914 1052.29 26.8899 1052.36 26.7579Z" fill="white" fill-opacity="0.1"/>
<path d="M808.313 381.308C808.637 380.7 807.942 380.111 807.222 380.385C807.066 380.446 806.947 380.547 806.875 380.679C806.551 381.288 807.246 381.877 807.966 381.603C808.121 381.542 808.241 381.44 808.313 381.308Z" fill="white" fill-opacity="0.1"/>
<path d="M905.116 43.48C905.439 42.8727 904.746 42.2856 904.028 42.5589C903.873 42.6197 903.753 42.7209 903.681 42.8524C903.347 43.4597 904.052 44.0569 904.769 43.7735C904.925 43.7128 905.044 43.6116 905.116 43.48Z" fill="white" fill-opacity="0.1"/>
<path d="M230.846 63.577C231.181 62.9681 230.476 62.3795 229.758 62.6535C229.603 62.7144 229.483 62.8159 229.412 62.9478C229.089 63.5567 229.782 64.1454 230.5 63.8713C230.655 63.8104 230.775 63.709 230.846 63.577Z" fill="white" fill-opacity="0.8"/>
<path d="M1.52025 78.2895C1.84393 77.6806 1.1486 77.092 0.429295 77.366C0.273446 77.4269 0.153588 77.5284 0.0816572 77.6603C-0.24203 78.2692 0.453266 78.8578 1.17257 78.5838C1.32842 78.5229 1.44832 78.4215 1.52025 78.2895Z" fill="white" fill-opacity="0.1"/>
<path d="M237.575 128.686C237.899 128.077 237.203 127.488 236.484 127.763C236.328 127.823 236.208 127.925 236.136 128.057C235.813 128.666 236.508 129.254 237.227 128.98C237.383 128.919 237.503 128.818 237.575 128.686Z" fill="white" fill-opacity="0.1"/>
<path d="M721.798 44.3871C722.121 43.7781 721.426 43.1895 720.707 43.4635C720.551 43.5244 720.431 43.6259 720.359 43.7578C720.035 44.3668 720.731 44.9554 721.45 44.6814C721.606 44.6205 721.726 44.519 721.798 44.3871Z" fill="white" fill-opacity="0.1"/>
<path d="M761.448 579.451C761.783 578.842 761.077 578.254 760.36 578.528C760.204 578.589 760.085 578.69 760.013 578.822C759.69 579.431 760.384 580.02 761.101 579.746C761.256 579.685 761.376 579.583 761.448 579.451Z" fill="white" fill-opacity="0.1"/>
<path d="M1280.93 92.458C1281.25 91.8491 1280.56 91.2605 1279.84 91.5345C1279.68 91.5954 1279.56 91.6969 1279.49 91.8288C1279.16 92.4377 1279.86 93.0264 1280.58 92.7524C1280.74 92.6915 1280.85 92.59 1280.93 92.458Z" fill="white" fill-opacity="0.1"/>
<path d="M1345.63 52.0192C1345.96 51.4103 1345.25 50.8217 1344.54 51.0957C1344.38 51.1566 1344.26 51.2581 1344.19 51.39C1343.87 51.999 1344.56 52.5876 1345.28 52.3136C1345.43 52.2527 1345.55 52.1512 1345.63 52.0192Z" fill="white" fill-opacity="0.1"/>
<path d="M293.065 315.603C293.388 314.994 292.695 314.406 291.977 314.68C291.822 314.741 291.702 314.842 291.631 314.974C291.296 315.583 292.001 316.172 292.719 315.898C292.874 315.837 292.994 315.735 293.065 315.603Z" fill="white" fill-opacity="0.1"/>
<path d="M691.35 117.473C691.674 116.864 690.979 116.276 690.259 116.55C690.104 116.611 689.984 116.712 689.912 116.844C689.588 117.453 690.283 118.042 691.003 117.768C691.158 117.707 691.278 117.605 691.35 117.473Z" fill="white" fill-opacity="0.1"/>
<path d="M1433.3 426.085C1433.63 425.476 1432.93 424.887 1432.21 425.161C1432.06 425.222 1431.94 425.324 1431.86 425.456C1431.54 426.065 1432.23 426.653 1432.95 426.379C1433.11 426.318 1433.23 426.217 1433.3 426.085Z" fill="white" fill-opacity="0.1"/>
<path d="M578.367 227.459C578.043 226.85 578.738 226.261 579.458 226.535C579.614 226.596 579.733 226.697 579.805 226.829C580.129 227.438 579.434 228.027 578.714 227.753C578.559 227.692 578.439 227.59 578.367 227.459Z" fill="white" fill-opacity="0.1"/>
<path d="M1089.37 506.811C1089.05 506.202 1089.74 505.614 1090.46 505.888C1090.62 505.949 1090.74 506.05 1090.81 506.182C1091.13 506.791 1090.44 507.38 1089.72 507.106C1089.56 507.045 1089.44 506.943 1089.37 506.811Z" fill="white" fill-opacity="0.1"/>
<path d="M483.855 486.438C483.532 485.829 484.226 485.241 484.943 485.515C485.098 485.576 485.218 485.677 485.29 485.809C485.624 486.418 484.919 487.007 484.202 486.733C484.046 486.672 483.927 486.57 483.855 486.438Z" fill="white" fill-opacity="0.1"/>
<path d="M938.793 509.524C938.469 508.915 939.164 508.326 939.883 508.6C940.039 508.661 940.159 508.763 940.231 508.895C940.555 509.503 939.86 510.092 939.14 509.818C938.984 509.757 938.864 509.656 938.793 509.524Z" fill="white" fill-opacity="0.1"/>
<path d="M1145.44 528.506C1145.11 527.899 1145.81 527.312 1146.52 527.585C1146.68 527.646 1146.8 527.747 1146.87 527.878C1147.21 528.486 1146.5 529.083 1145.78 528.8C1145.63 528.739 1145.51 528.638 1145.44 528.506Z" fill="white" fill-opacity="0.1"/>
<path d="M416.425 369.932C416.102 369.323 416.796 368.735 417.513 369.009C417.669 369.069 417.788 369.171 417.86 369.303C418.195 369.912 417.489 370.5 416.772 370.226C416.617 370.166 416.497 370.064 416.425 369.932Z" fill="white" fill-opacity="0.1"/>
<path d="M325.613 149.241C326.333 148.958 327.028 149.555 326.704 150.162C326.632 150.294 326.512 150.395 326.357 150.456C325.637 150.729 324.942 150.142 325.266 149.535C325.338 149.403 325.457 149.302 325.613 149.241Z" fill="white" fill-opacity="0.1"/>
<path d="M182.699 353.903C182.376 353.294 183.069 352.706 183.787 352.98C183.942 353.04 184.062 353.142 184.133 353.274C184.468 353.883 183.763 354.471 183.045 354.197C182.89 354.137 182.77 354.035 182.699 353.903Z" fill="white" fill-opacity="0.1"/>
<path d="M1220.73 0.992652C1220.4 0.383731 1221.1 -0.204896 1221.81 0.0691182C1221.97 0.13001 1222.09 0.23149 1222.16 0.363423C1222.5 0.972345 1221.79 1.56097 1221.07 1.28696C1220.92 1.22607 1220.8 1.12459 1220.73 0.992652Z" fill="white" fill-opacity="0.1"/>
<path d="M1182.86 15.2009C1182.54 14.592 1183.23 14.0034 1183.95 14.2774C1184.11 14.3383 1184.23 14.4398 1184.3 14.5717C1184.62 15.1806 1183.93 15.7692 1183.21 15.4952C1183.05 15.4343 1182.93 15.3328 1182.86 15.2009Z" fill="white" fill-opacity="0.1"/>
<path d="M299.578 462.059C299.254 461.45 299.949 460.861 300.669 461.135C300.825 461.196 300.944 461.298 301.016 461.43C301.34 462.038 300.645 462.627 299.925 462.353C299.77 462.292 299.65 462.191 299.578 462.059Z" fill="white" fill-opacity="0.1"/>
<path d="M104.209 295.264C103.874 294.656 104.579 294.059 105.297 294.343C105.452 294.403 105.572 294.504 105.644 294.636C105.966 295.243 105.273 295.83 104.555 295.557C104.4 295.496 104.28 295.395 104.209 295.264Z" fill="white" fill-opacity="0.1"/>
<path d="M160.263 267.358C159.929 266.749 160.634 266.161 161.351 266.435C161.507 266.496 161.626 266.597 161.698 266.729C162.021 267.338 161.328 267.927 160.61 267.653C160.455 267.592 160.335 267.49 160.263 267.358Z" fill="white" fill-opacity="0.8"/>
<path d="M440.861 298.179C440.538 297.57 441.231 296.982 441.949 297.256C442.104 297.317 442.224 297.418 442.295 297.55C442.63 298.159 441.925 298.748 441.207 298.474C441.052 298.413 440.932 298.311 440.861 298.179Z" fill="white" fill-opacity="0.1"/>
<path d="M36.9252 152.874C36.6024 152.265 37.2958 151.676 38.0132 151.95C38.1687 152.011 38.2882 152.113 38.3599 152.245C38.6947 152.854 37.9893 153.442 37.2719 153.168C37.1165 153.107 36.9969 153.006 36.9252 152.874Z" fill="white" fill-opacity="0.1"/>
<path d="M1298.94 25.9853C1298.62 25.3763 1299.31 24.7877 1300.03 25.0617C1300.19 25.1226 1300.31 25.2241 1300.38 25.356C1300.71 25.965 1300.01 26.5536 1299.29 26.2796C1299.13 26.2187 1299.01 26.1172 1298.94 25.9853Z" fill="white" fill-opacity="0.1"/>
<path d="M336.91 277.51C336.587 276.901 337.28 276.312 337.998 276.586C338.153 276.647 338.273 276.749 338.344 276.881C338.679 277.49 337.974 278.078 337.256 277.804C337.101 277.743 336.981 277.642 336.91 277.51Z" fill="white" fill-opacity="0.1"/>
<path d="M810.642 15.9095C810.318 15.3006 811.014 14.7119 811.733 14.986C811.889 15.0468 812.009 15.1483 812.081 15.2803C812.404 15.8892 811.709 16.4778 810.99 16.2038C810.834 16.1429 810.714 16.0414 810.642 15.9095Z" fill="white" fill-opacity="0.1"/>
<path d="M726.296 94.5587C725.973 93.9498 726.667 93.3612 727.384 93.6352C727.54 93.6961 727.659 93.7976 727.731 93.9295C728.066 94.5384 727.36 95.127 726.643 94.853C726.488 94.7921 726.368 94.6907 726.296 94.5587Z" fill="white" fill-opacity="0.1"/>
<path d="M877.404 94.9435C877.08 94.3346 877.776 93.746 878.495 94.02C878.651 94.0809 878.771 94.1824 878.842 94.3143C879.166 94.9232 878.471 95.5119 877.752 95.2379C877.596 95.177 877.476 95.0755 877.404 94.9435Z" fill="white" fill-opacity="0.1"/>
<path d="M614.451 491.619C614.127 491.01 614.822 490.422 615.542 490.696C615.698 490.757 615.817 490.858 615.889 490.99C616.213 491.599 615.518 492.188 614.798 491.914C614.643 491.853 614.523 491.751 614.451 491.619Z" fill="white" fill-opacity="0.1"/>
<path d="M887.533 524.44C887.209 523.832 887.904 523.243 888.624 523.517C888.78 523.578 888.899 523.679 888.971 523.811C889.295 524.42 888.6 525.009 887.88 524.735C887.725 524.674 887.605 524.572 887.533 524.44Z" fill="white" fill-opacity="0.1"/>
<path d="M996.461 563.767C996.137 563.158 996.832 562.569 997.551 562.843C997.707 562.904 997.827 563.006 997.899 563.138C998.223 563.747 997.527 564.335 996.808 564.061C996.652 564 996.532 563.899 996.461 563.767Z" fill="white" fill-opacity="0.8"/>
<path d="M1191.22 471.229C1190.9 470.62 1191.59 470.031 1192.31 470.305C1192.47 470.366 1192.59 470.467 1192.66 470.599C1192.98 471.208 1192.29 471.797 1191.57 471.523C1191.41 471.462 1191.29 471.361 1191.22 471.229Z" fill="white" fill-opacity="0.8"/>
<path d="M804.232 531.221C803.908 530.612 804.604 530.024 805.323 530.298C805.479 530.358 805.599 530.46 805.671 530.592C805.994 531.201 805.299 531.789 804.58 531.515C804.424 531.455 804.304 531.353 804.232 531.221Z" fill="white" fill-opacity="0.8"/>
<path d="M869.911 578.684C869.589 578.075 870.282 577.487 871 577.761C871.155 577.821 871.275 577.923 871.346 578.055C871.681 578.664 870.976 579.252 870.258 578.978C870.103 578.917 869.983 578.816 869.911 578.684Z" fill="white" fill-opacity="0.1"/>
<path d="M430.992 114.904C430.669 114.295 431.362 113.706 432.08 113.98C432.235 114.041 432.355 114.142 432.426 114.274C432.761 114.883 432.056 115.472 431.338 115.198C431.183 115.137 431.063 115.036 430.992 114.904Z" fill="white" fill-opacity="0.1"/>
<path d="M1373.45 479.667C1373.13 479.058 1373.82 478.47 1374.54 478.744C1374.69 478.805 1374.81 478.906 1374.88 479.038C1375.22 479.647 1374.51 480.236 1373.8 479.962C1373.64 479.901 1373.52 479.799 1373.45 479.667Z" fill="white" fill-opacity="0.1"/>
<path d="M1318.27 462.382C1317.93 461.773 1318.64 461.185 1319.36 461.459C1319.51 461.52 1319.63 461.621 1319.7 461.753C1320.03 462.362 1319.33 462.951 1318.62 462.677C1318.46 462.616 1318.34 462.514 1318.27 462.382Z" fill="white" fill-opacity="0.1"/>
<path d="M1404.94 97.2745C1404.62 96.6656 1405.31 96.0769 1406.03 96.3509C1406.19 96.4118 1406.31 96.5133 1406.38 96.6453C1406.71 97.2542 1406.01 97.8428 1405.29 97.5688C1405.13 97.5079 1405.01 97.4064 1404.94 97.2745Z" fill="white" fill-opacity="0.1"/>
<path d="M329.828 379.009C329.505 378.4 330.198 377.812 330.916 378.086C331.071 378.147 331.191 378.248 331.262 378.38C331.597 378.989 330.892 379.578 330.174 379.304C330.019 379.243 329.899 379.141 329.828 379.009Z" fill="white" fill-opacity="0.1"/>
<path d="M1217.52 524.44C1217.2 523.832 1217.89 523.243 1218.61 523.517C1218.77 523.578 1218.89 523.679 1218.96 523.811C1219.28 524.42 1218.59 525.009 1217.87 524.735C1217.71 524.674 1217.59 524.572 1217.52 524.44Z" fill="white" fill-opacity="0.1"/>
<path d="M1368.17 140.669C1368.5 140.06 1367.8 139.472 1367.08 139.746C1366.93 139.807 1366.81 139.908 1366.74 140.04C1366.41 140.649 1367.11 141.237 1367.82 140.963C1367.98 140.903 1368.1 140.801 1368.17 140.669Z" fill="white" fill-opacity="0.8"/>
<path d="M1375.01 201.749C1374.69 201.14 1375.38 200.551 1376.1 200.825C1376.26 200.886 1376.38 200.988 1376.45 201.12C1376.78 201.729 1376.08 202.317 1375.36 202.043C1375.2 201.982 1375.08 201.881 1375.01 201.749Z" fill="white" fill-opacity="0.1"/>
<path d="M1350.48 267.026C1350.15 266.417 1350.85 265.828 1351.57 266.102C1351.73 266.163 1351.85 266.265 1351.92 266.396C1352.24 267.005 1351.55 267.594 1350.83 267.32C1350.68 267.259 1350.56 267.158 1350.48 267.026Z" fill="white" fill-opacity="0.8"/>
<path d="M1243.5 190.844C1243.82 190.235 1243.12 189.647 1242.41 189.921C1242.25 189.982 1242.13 190.083 1242.06 190.215C1241.73 190.824 1242.43 191.412 1243.15 191.138C1243.3 191.078 1243.42 190.976 1243.5 190.844Z" fill="white" fill-opacity="0.8"/>
<path d="M1211.66 369.668C1212 369.059 1211.29 368.47 1210.57 368.744C1210.42 368.805 1210.3 368.907 1210.23 369.038C1209.9 369.647 1210.6 370.236 1211.31 369.962C1211.47 369.901 1211.59 369.8 1211.66 369.668Z" fill="white" fill-opacity="0.1"/>
<path d="M1142.24 203.361C1142.56 202.752 1141.87 202.164 1141.15 202.438C1141 202.499 1140.88 202.6 1140.8 202.732C1140.47 203.341 1141.17 203.93 1141.89 203.656C1142.05 203.595 1142.17 203.493 1142.24 203.361Z" fill="white" fill-opacity="0.1"/>
<path d="M1262.72 243.731C1263.04 243.123 1262.35 242.534 1261.63 242.808C1261.47 242.869 1261.35 242.97 1261.28 243.102C1260.96 243.711 1261.65 244.3 1262.37 244.026C1262.53 243.965 1262.65 243.863 1262.72 243.731Z" fill="white" fill-opacity="0.1"/>
<path d="M863.336 323.74C863.671 323.131 862.966 322.543 862.248 322.817C862.093 322.878 861.973 322.979 861.902 323.111C861.579 323.72 862.272 324.309 862.99 324.035C863.145 323.974 863.265 323.872 863.336 323.74Z" fill="white" fill-opacity="0.1"/>
<path d="M1134.56 421.378C1134.9 420.769 1134.19 420.181 1133.47 420.455C1133.32 420.516 1133.2 420.617 1133.13 420.749C1132.8 421.358 1133.5 421.946 1134.21 421.672C1134.37 421.612 1134.49 421.51 1134.56 421.378Z" fill="white" fill-opacity="0.1"/>
<path d="M1387.67 444.431C1387.99 443.822 1387.3 443.234 1386.58 443.508C1386.42 443.569 1386.3 443.67 1386.23 443.802C1385.9 444.411 1386.6 445 1387.32 444.726C1387.48 444.665 1387.59 444.563 1387.67 444.431Z" fill="white" fill-opacity="0.1"/>
<path d="M788.555 193.556C788.89 192.947 788.185 192.359 787.467 192.633C787.312 192.693 787.192 192.795 787.12 192.927C786.798 193.536 787.491 194.124 788.208 193.85C788.364 193.79 788.483 193.688 788.555 193.556Z" fill="white" fill-opacity="0.8"/>
<path d="M780.522 375.304C780.845 374.695 780.152 374.106 779.434 374.38C779.279 374.441 779.159 374.543 779.088 374.674C778.753 375.283 779.458 375.872 780.176 375.598C780.331 375.537 780.451 375.436 780.522 375.304Z" fill="white" fill-opacity="0.1"/>
<path d="M1072.13 215.843C1072.45 215.236 1071.76 214.649 1071.04 214.922C1070.89 214.983 1070.77 215.084 1070.7 215.215C1070.36 215.823 1071.07 216.42 1071.78 216.136C1071.94 216.076 1072.06 215.974 1072.13 215.843Z" fill="white" fill-opacity="0.1"/>
<path d="M961.72 462.722C962.042 462.113 961.349 461.524 960.632 461.798C960.476 461.859 960.357 461.961 960.285 462.093C959.95 462.701 960.656 463.29 961.373 463.016C961.528 462.955 961.648 462.854 961.72 462.722Z" fill="white" fill-opacity="0.1"/>
<path d="M1270.38 287.562C1269.66 287.279 1268.97 287.876 1269.29 288.483C1269.36 288.615 1269.48 288.716 1269.64 288.777C1270.36 289.05 1271.05 288.463 1270.73 287.855C1270.66 287.724 1270.54 287.623 1270.38 287.562Z" fill="white" fill-opacity="0.1"/>
<path d="M691.936 274.173C692.259 273.564 691.566 272.975 690.848 273.249C690.693 273.31 690.573 273.412 690.502 273.544C690.167 274.153 690.872 274.741 691.59 274.467C691.745 274.406 691.865 274.305 691.936 274.173Z" fill="white" fill-opacity="0.1"/>
<path d="M756.635 233.734C756.97 233.125 756.265 232.537 755.547 232.811C755.392 232.871 755.272 232.973 755.201 233.105C754.878 233.714 755.571 234.302 756.289 234.028C756.444 233.968 756.564 233.866 756.635 233.734Z" fill="white" fill-opacity="0.1"/>
<path d="M1208.36 457.33C1208.69 456.721 1207.99 456.132 1207.27 456.406C1207.12 456.467 1207 456.568 1206.93 456.7C1206.6 457.309 1207.3 457.898 1208.02 457.624C1208.17 457.563 1208.29 457.462 1208.36 457.33Z" fill="white" fill-opacity="0.1"/>
<path d="M883.695 224.973C883.36 224.364 884.066 223.775 884.783 224.049C884.939 224.11 885.058 224.212 885.13 224.343C885.453 224.952 884.759 225.541 884.042 225.267C883.886 225.206 883.767 225.105 883.695 224.973Z" fill="white" fill-opacity="0.8"/>
<path d="M1272.49 353.574C1272.17 352.965 1272.86 352.376 1273.58 352.65C1273.74 352.711 1273.86 352.812 1273.93 352.944C1274.26 353.553 1273.56 354.142 1272.84 353.868C1272.68 353.807 1272.56 353.706 1272.49 353.574Z" fill="white" fill-opacity="0.1"/>
<path d="M1234.74 315.158C1234.41 314.549 1235.11 313.96 1235.83 314.234C1235.99 314.295 1236.1 314.397 1236.18 314.529C1236.5 315.137 1235.81 315.726 1235.09 315.452C1234.93 315.391 1234.81 315.29 1234.74 315.158Z" fill="white" fill-opacity="0.8"/>
<path d="M1304.42 413.182C1304.09 412.573 1304.79 411.984 1305.51 412.258C1305.66 412.319 1305.78 412.421 1305.85 412.553C1306.19 413.161 1305.48 413.75 1304.76 413.476C1304.61 413.415 1304.49 413.314 1304.42 413.182Z" fill="white" fill-opacity="0.1"/>
<path d="M1376.65 366.388C1375.93 366.662 1375.24 366.074 1375.56 365.465C1375.63 365.333 1375.75 365.231 1375.91 365.171C1376.63 364.897 1377.32 365.485 1377 366.094C1376.93 366.226 1376.81 366.328 1376.65 366.388Z" fill="white" fill-opacity="0.8"/>
<path d="M1337.66 322.675C1336.94 322.958 1336.25 322.361 1336.57 321.754C1336.64 321.622 1336.76 321.521 1336.92 321.46C1337.64 321.187 1338.33 321.774 1338.01 322.381C1337.94 322.513 1337.82 322.614 1337.66 322.675Z" fill="white" fill-opacity="0.1"/>
<path d="M709.953 207.7C709.629 207.091 710.324 206.503 711.044 206.777C711.2 206.838 711.319 206.939 711.391 207.071C711.715 207.68 711.02 208.269 710.3 207.995C710.145 207.934 710.025 207.832 709.953 207.7Z" fill="white" fill-opacity="0.1"/>
<path d="M1009.79 399.682C1009.45 399.074 1010.16 398.477 1010.87 398.761C1011.03 398.821 1011.15 398.923 1011.22 399.054C1011.54 399.662 1010.85 400.249 1010.13 399.975C1009.98 399.915 1009.86 399.813 1009.79 399.682Z" fill="white" fill-opacity="0.1"/>
<path d="M900.275 260.693C899.951 260.084 900.647 259.496 901.366 259.77C901.522 259.83 901.642 259.932 901.714 260.064C902.037 260.673 901.342 261.261 900.623 260.987C900.467 260.926 900.347 260.825 900.275 260.693Z" fill="white" fill-opacity="0.8"/>
<path d="M815.952 278.989C815.63 278.38 816.323 277.792 817.041 278.066C817.196 278.127 817.316 278.228 817.387 278.36C817.722 278.969 817.017 279.558 816.299 279.284C816.144 279.223 816.024 279.121 815.952 278.989Z" fill="white" fill-opacity="0.1"/>
<path d="M909.535 308.631C909.2 308.022 909.906 307.434 910.623 307.708C910.778 307.769 910.898 307.87 910.97 308.002C911.292 308.611 910.599 309.2 909.882 308.926C909.726 308.865 909.607 308.763 909.535 308.631Z" fill="white" fill-opacity="0.1"/>
<path d="M732.148 303.396C731.825 302.789 732.518 302.202 733.236 302.475C733.391 302.536 733.511 302.637 733.583 302.769C733.917 303.376 733.212 303.973 732.495 303.69C732.339 303.629 732.22 303.528 732.148 303.396Z" fill="white" fill-opacity="0.1"/>
<path d="M1033.42 447.851C1033.1 447.243 1033.79 446.654 1034.51 446.928C1034.67 446.989 1034.79 447.09 1034.86 447.222C1035.19 447.831 1034.49 448.42 1033.77 448.146C1033.61 448.085 1033.5 447.983 1033.42 447.851Z" fill="white" fill-opacity="0.1"/>
<path d="M1438.58 286.06C1437.86 286.344 1437.16 285.747 1437.49 285.139C1437.56 285.008 1437.68 284.906 1437.84 284.846C1438.55 284.572 1439.25 285.16 1438.93 285.767C1438.85 285.898 1438.73 286 1438.58 286.06Z" fill="white" fill-opacity="0.1"/>
<path d="M365.316 331.876C364.981 331.267 365.687 330.679 366.404 330.953C366.56 331.014 366.679 331.115 366.751 331.247C367.074 331.856 366.38 332.445 365.663 332.171C365.507 332.11 365.388 332.008 365.316 331.876Z" fill="white" fill-opacity="0.1"/>
<path d="M693.707 529.864C693.372 529.255 694.077 528.667 694.795 528.941C694.95 529.002 695.07 529.103 695.142 529.235C695.464 529.844 694.771 530.433 694.054 530.159C693.898 530.098 693.779 529.996 693.707 529.864Z" fill="white" fill-opacity="0.1"/>
<path d="M538.322 523.084C537.987 522.475 538.693 521.887 539.41 522.161C539.565 522.222 539.685 522.323 539.757 522.455C540.08 523.064 539.386 523.653 538.669 523.379C538.513 523.318 538.394 523.216 538.322 523.084Z" fill="white" fill-opacity="0.8"/>
<path d="M687.299 479.69C686.964 479.081 687.669 478.492 688.387 478.766C688.542 478.827 688.662 478.928 688.733 479.06C689.056 479.669 688.363 480.258 687.645 479.984C687.49 479.923 687.37 479.821 687.299 479.69Z" fill="white" fill-opacity="0.1"/>
<path d="M500.138 371.408C499.804 370.799 500.509 370.21 501.226 370.484C501.382 370.545 501.501 370.647 501.573 370.779C501.896 371.387 501.203 371.976 500.485 371.702C500.33 371.641 500.21 371.54 500.138 371.408Z" fill="white" fill-opacity="0.1"/>
<path d="M685.496 368.584C685.161 367.975 685.866 367.386 686.584 367.66C686.739 367.721 686.859 367.823 686.931 367.955C687.253 368.563 686.56 369.152 685.843 368.878C685.687 368.817 685.568 368.716 685.496 368.584Z" fill="white" fill-opacity="0.1"/>
<path d="M577.619 450.39C577.295 449.781 577.99 449.193 578.71 449.467C578.866 449.528 578.985 449.629 579.057 449.761C579.381 450.37 578.686 450.959 577.966 450.685C577.811 450.624 577.691 450.522 577.619 450.39Z" fill="white" fill-opacity="0.1"/>
<path d="M1158.09 57.948C1158.41 57.3391 1157.72 56.7505 1157 57.0245C1156.84 57.0854 1156.73 57.1869 1156.65 57.3188C1156.32 57.9277 1157.02 58.5163 1157.74 58.2423C1157.9 58.1814 1158.02 58.0799 1158.09 57.948Z" fill="white" fill-opacity="0.1"/>
<path d="M1110.03 178.64C1110.36 178.031 1109.66 177.442 1108.94 177.716C1108.79 177.777 1108.67 177.878 1108.6 178.01C1108.26 178.619 1108.97 179.208 1109.69 178.934C1109.84 178.873 1109.96 178.771 1110.03 178.64Z" fill="white" fill-opacity="0.8"/>
<path d="M958.015 114.872C957.692 114.263 958.386 113.674 959.103 113.948C959.258 114.009 959.378 114.111 959.45 114.243C959.785 114.851 959.079 115.44 958.362 115.166C958.206 115.105 958.087 115.004 958.015 114.872Z" fill="white" fill-opacity="0.1"/>
<path d="M1088.61 120.052C1088.28 119.443 1088.98 118.855 1089.7 119.129C1089.86 119.19 1089.98 119.291 1090.05 119.423C1090.37 120.032 1089.68 120.621 1088.96 120.347C1088.8 120.286 1088.68 120.184 1088.61 120.052Z" fill="white" fill-opacity="0.1"/>
<path d="M1167.87 158.298C1167.53 157.689 1168.24 157.101 1168.95 157.375C1169.11 157.436 1169.23 157.537 1169.3 157.669C1169.62 158.278 1168.93 158.867 1168.21 158.593C1168.06 158.532 1167.94 158.43 1167.87 158.298Z" fill="white" fill-opacity="0.1"/>
<path d="M1012.48 151.518C1012.15 150.909 1012.85 150.32 1013.57 150.594C1013.73 150.655 1013.85 150.756 1013.92 150.888C1014.24 151.497 1013.55 152.086 1012.83 151.812C1012.68 151.751 1012.56 151.65 1012.48 151.518Z" fill="white" fill-opacity="0.8"/>
<path d="M1161.46 108.123C1161.13 107.514 1161.83 106.925 1162.55 107.199C1162.7 107.26 1162.82 107.362 1162.9 107.494C1163.22 108.103 1162.52 108.691 1161.81 108.417C1161.65 108.356 1161.53 108.255 1161.46 108.123Z" fill="white" fill-opacity="0.1"/>
<path d="M1051.78 78.8236C1051.45 78.2147 1052.15 77.626 1052.87 77.9001C1053.03 77.9609 1053.15 78.0624 1053.22 78.1944C1053.54 78.8033 1052.85 79.3919 1052.13 79.1179C1051.97 79.057 1051.85 78.9555 1051.78 78.8236Z" fill="white" fill-opacity="0.1"/>
<path d="M319.281 426.17C318.957 425.561 319.652 424.972 320.372 425.246C320.528 425.307 320.648 425.409 320.719 425.541C321.043 426.149 320.348 426.738 319.629 426.464C319.473 426.403 319.353 426.302 319.281 426.17Z" fill="white" fill-opacity="0.8"/>
<path d="M133.039 105.411C132.715 104.802 133.41 104.213 134.13 104.487C134.285 104.548 134.405 104.65 134.477 104.782C134.801 105.391 134.106 105.979 133.386 105.705C133.231 105.644 133.111 105.543 133.039 105.411Z" fill="white" fill-opacity="0.1"/>
<path d="M521.958 37.5815C521.636 36.9742 522.329 36.3871 523.046 36.6604C523.202 36.7211 523.321 36.8223 523.393 36.9539C523.728 37.5612 523.022 38.1584 522.305 37.875C522.15 37.8143 522.03 37.713 521.958 37.5815Z" fill="white" fill-opacity="0.1"/>
<path d="M349.982 12.422C349.658 11.8131 350.354 11.2245 351.073 11.4985C351.229 11.5594 351.349 11.6608 351.421 11.7928C351.744 12.4017 351.049 12.9903 350.33 12.7163C350.174 12.6554 350.054 12.5539 349.982 12.422Z" fill="white" fill-opacity="0.1"/>
<path d="M349.299 66.0844C348.964 65.4755 349.669 64.8869 350.387 65.1609C350.542 65.2218 350.662 65.3233 350.733 65.4552C351.056 66.0641 350.363 66.6527 349.645 66.3787C349.49 66.3178 349.37 66.2163 349.299 66.0844Z" fill="white" fill-opacity="0.1"/>
<path d="M615.213 75.5771C614.878 74.9682 615.583 74.3795 616.301 74.6536C616.456 74.7145 616.576 74.8159 616.647 74.9479C616.97 75.5568 616.277 76.1454 615.559 75.8714C615.404 75.8105 615.284 75.709 615.213 75.5771Z" fill="white" fill-opacity="0.1"/>
<path d="M203.521 196.269C203.197 195.66 203.893 195.071 204.612 195.345C204.768 195.406 204.888 195.507 204.96 195.639C205.283 196.248 204.588 196.837 203.869 196.563C203.713 196.502 203.593 196.4 203.521 196.269Z" fill="white" fill-opacity="0.1"/>
<path d="M119.773 179.233C119.45 178.625 120.143 178.036 120.861 178.31C121.016 178.371 121.136 178.472 121.208 178.604C121.542 179.213 120.837 179.802 120.12 179.528C119.964 179.467 119.845 179.365 119.773 179.233Z" fill="white" fill-opacity="0.1"/>
<path d="M75.2647 0.359955H0.5V61.33M75.2647 0.359955V61.33M75.2647 0.359955H150.029M75.2647 61.33H0.5M75.2647 61.33H150.029M75.2647 61.33V122.3M0.5 61.33V122.3M150.029 0.359955V61.33M150.029 0.359955H224.794M150.029 61.33H224.794M150.029 61.33V122.3M224.794 0.359955V61.33M224.794 0.359955H299.559M224.794 61.33H299.559M224.794 61.33V122.3M299.559 0.359955V61.33M299.559 0.359955H374.324M299.559 61.33H374.324M299.559 61.33V122.3M374.324 0.359955V61.33M374.324 0.359955H449.088M374.324 61.33H449.088M374.324 61.33V122.3M449.088 0.359955V61.33M449.088 0.359955H523.853M449.088 61.33H523.853M449.088 61.33V122.3M523.853 0.359955V61.33M523.853 0.359955H598.618M523.853 61.33H598.618M523.853 61.33V122.3M598.618 0.359955V61.33M598.618 0.359955H673.382M598.618 61.33H673.382M598.618 61.33V122.3M673.382 0.359955V61.33M673.382 0.359955H748.147M673.382 61.33H748.147M673.382 61.33V122.3M748.147 0.359955V61.33M748.147 0.359955H822.912M748.147 61.33H822.912M748.147 61.33V122.3M822.912 0.359955V61.33M822.912 0.359955H897.676M822.912 61.33H897.676M822.912 61.33V122.3M897.676 0.359955V61.33M897.676 0.359955H972.441M897.676 61.33H972.441M897.676 61.33V122.3M972.441 0.359955V61.33M972.441 0.359955H1047.21M972.441 61.33H1047.21M972.441 61.33V122.3M1047.21 0.359955V61.33M1047.21 0.359955H1121.97M1047.21 61.33H1121.97M1047.21 61.33V122.3M1121.97 0.359955V61.33M1121.97 0.359955H1196.74M1121.97 61.33H1196.74M1121.97 61.33V122.3M1196.74 0.359955V61.33M1196.74 0.359955H1271.5V61.33M1196.74 61.33H1271.5M1196.74 61.33V122.3M1271.5 61.33V122.3M75.2647 122.3H0.5M75.2647 122.3H150.029M75.2647 122.3V183.27M0.5 122.3V183.27M150.029 122.3H224.794M150.029 122.3V183.27M224.794 122.3H299.559M224.794 122.3V183.27M299.559 122.3H374.324M299.559 122.3V183.27M374.324 122.3H449.088M374.324 122.3V183.27M449.088 122.3H523.853M449.088 122.3V183.27M523.853 122.3H598.618M523.853 122.3V183.27M598.618 122.3H673.382M598.618 122.3V183.27M673.382 122.3H748.147M673.382 122.3V183.27M748.147 122.3H822.912M748.147 122.3V183.27M822.912 122.3H897.676M822.912 122.3V183.27M897.676 122.3H972.441M897.676 122.3V183.27M972.441 122.3H1047.21M972.441 122.3V183.27M1047.21 122.3H1121.97M1047.21 122.3V183.27M1121.97 122.3H1196.74M1121.97 122.3V183.27M1196.74 122.3H1271.5M1196.74 122.3V183.27M1271.5 122.3V183.27M75.2647 183.27H0.5M75.2647 183.27H150.029M75.2647 183.27V244.24M0.5 183.27V244.24M150.029 183.27H224.794M150.029 183.27V244.24M224.794 183.27H299.559M224.794 183.27V244.24M299.559 183.27H374.324M299.559 183.27V244.24M374.324 183.27H449.088M374.324 183.27V244.24M449.088 183.27H523.853M449.088 183.27V244.24M523.853 183.27H598.618M523.853 183.27V244.24M598.618 183.27H673.382M598.618 183.27V244.24M673.382 183.27H748.147M673.382 183.27V244.24M748.147 183.27H822.912M748.147 183.27V244.24M822.912 183.27H897.676M822.912 183.27V244.24M897.676 183.27H972.441M897.676 183.27V244.24M972.441 183.27H1047.21M972.441 183.27V244.24M1047.21 183.27H1121.97M1047.21 183.27V244.24M1121.97 183.27H1196.74M1121.97 183.27V244.24M1196.74 183.27H1271.5M1196.74 183.27V244.24M1271.5 183.27V244.24M75.2647 244.24H0.5M75.2647 244.24H150.029M75.2647 244.24V305.21M0.5 244.24V305.21M150.029 244.24H224.794M150.029 244.24V305.21M224.794 244.24H299.559M224.794 244.24V305.21M299.559 244.24H374.324M299.559 244.24V305.21M374.324 244.24H449.088M374.324 244.24V305.21M449.088 244.24H523.853M449.088 244.24V305.21M523.853 244.24H598.618M523.853 244.24V305.21M598.618 244.24H673.382M598.618 244.24V305.21M673.382 244.24H748.147M673.382 244.24V305.21M748.147 244.24H822.912M748.147 244.24V305.21M822.912 244.24H897.676M822.912 244.24V305.21M897.676 244.24H972.441M897.676 244.24V305.21M972.441 244.24H1047.21M972.441 244.24V305.21M1047.21 244.24H1121.97M1047.21 244.24V305.21M1121.97 244.24H1196.74M1121.97 244.24V305.21M1196.74 244.24H1271.5M1196.74 244.24V305.21M1271.5 244.24V305.21M75.2647 305.21H0.5M75.2647 305.21H150.029M75.2647 305.21V366.18M0.5 305.21V366.18M150.029 305.21H224.794M150.029 305.21V366.18M224.794 305.21H299.559M224.794 305.21V366.18M299.559 305.21H374.324M299.559 305.21V366.18M374.324 305.21H449.088M374.324 305.21V366.18M449.088 305.21H523.853M449.088 305.21V366.18M523.853 305.21H598.618M523.853 305.21V366.18M598.618 305.21H673.382M598.618 305.21V366.18M673.382 305.21H748.147M673.382 305.21V366.18M748.147 305.21H822.912M748.147 305.21V366.18M822.912 305.21H897.676M822.912 305.21V366.18M897.676 305.21H972.441M897.676 305.21V366.18M972.441 305.21H1047.21M972.441 305.21V366.18M1047.21 305.21H1121.97M1047.21 305.21V366.18M1121.97 305.21H1196.74M1121.97 305.21V366.18M1196.74 305.21H1271.5M1196.74 305.21V366.18M1271.5 305.21V366.18M75.2647 366.18H0.5M75.2647 366.18H150.029M75.2647 366.18V427.15M0.5 366.18V427.15M150.029 366.18H224.794M150.029 366.18V427.15M224.794 366.18H299.559M224.794 366.18V427.15M299.559 366.18H374.324M299.559 366.18V427.15M374.324 366.18H449.088M374.324 366.18V427.15M449.088 366.18H523.853M449.088 366.18V427.15M523.853 366.18H598.618M523.853 366.18V427.15M598.618 366.18H673.382M598.618 366.18V427.15M673.382 366.18H748.147M673.382 366.18V427.15M748.147 366.18H822.912M748.147 366.18V427.15M822.912 366.18H897.676M822.912 366.18V427.15M897.676 366.18H972.441M897.676 366.18V427.15M972.441 366.18H1047.21M972.441 366.18V427.15M1047.21 366.18H1121.97M1047.21 366.18V427.15M1121.97 366.18H1196.74M1121.97 366.18V427.15M1196.74 366.18H1271.5M1196.74 366.18V427.15M1271.5 366.18V427.15M75.2647 427.15H0.5M75.2647 427.15H150.029M75.2647 427.15V488.12M0.5 427.15V488.12M150.029 427.15H224.794M150.029 427.15V488.12M224.794 427.15H299.559M224.794 427.15V488.12M299.559 427.15H374.324M299.559 427.15V488.12M374.324 427.15H449.088M374.324 427.15V488.12M449.088 427.15H523.853M449.088 427.15V488.12M523.853 427.15H598.618M523.853 427.15V488.12M598.618 427.15H673.382M598.618 427.15V488.12M673.382 427.15H748.147M673.382 427.15V488.12M748.147 427.15H822.912M748.147 427.15V488.12M822.912 427.15H897.676M822.912 427.15V488.12M897.676 427.15H972.441M897.676 427.15V488.12M972.441 427.15H1047.21M972.441 427.15V488.12M1047.21 427.15H1121.97M1047.21 427.15V488.12M1121.97 427.15H1196.74M1121.97 427.15V488.12M1196.74 427.15H1271.5M1196.74 427.15V488.12M1271.5 427.15V488.12M75.2647 488.12H0.5M75.2647 488.12H150.029M75.2647 488.12V549.09M0.5 488.12V549.09M150.029 488.12H224.794M150.029 488.12V549.09M224.794 488.12H299.559M224.794 488.12V549.09M299.559 488.12H374.324M299.559 488.12V549.09M374.324 488.12H449.088M374.324 488.12V549.09M449.088 488.12H523.853M449.088 488.12V549.09M523.853 488.12H598.618M523.853 488.12V549.09M598.618 488.12H673.382M598.618 488.12V549.09M673.382 488.12H748.147M673.382 488.12V549.09M748.147 488.12H822.912M748.147 488.12V549.09M822.912 488.12H897.676M822.912 488.12V549.09M897.676 488.12H972.441M897.676 488.12V549.09M972.441 488.12H1047.21M972.441 488.12V549.09M1047.21 488.12H1121.97M1047.21 488.12V549.09M1121.97 488.12H1196.74M1121.97 488.12V549.09M1196.74 488.12H1271.5M1196.74 488.12V549.09M1271.5 488.12V549.09M75.2647 549.09H0.5M75.2647 549.09H150.029M75.2647 549.09V610.06M0.5 549.09V610.06M150.029 549.09H224.794M150.029 549.09V610.06M224.794 549.09H299.559M224.794 549.09V610.06M299.559 549.09H374.324M299.559 549.09V610.06M374.324 549.09H449.088M374.324 549.09V610.06M449.088 549.09H523.853M449.088 549.09V610.06M523.853 549.09H598.618M523.853 549.09V610.06M598.618 549.09H673.382M598.618 549.09V610.06M673.382 549.09H748.147M673.382 549.09V610.06M748.147 549.09H822.912M748.147 549.09V610.06M822.912 549.09H897.676M822.912 549.09V610.06M897.676 549.09H972.441M897.676 549.09V610.06M972.441 549.09H1047.21M972.441 549.09V610.06M1047.21 549.09H1121.97M1047.21 549.09V610.06M1121.97 549.09H1196.74M1121.97 549.09V610.06M1196.74 549.09H1271.5M1196.74 549.09V610.06M1271.5 549.09V610.06M75.2647 610.06H0.5M75.2647 610.06H150.029M75.2647 610.06V671.03M0.5 610.06V671.03M150.029 610.06H224.794M150.029 610.06V671.03M224.794 610.06H299.559M224.794 610.06V671.03M299.559 610.06H374.324M299.559 610.06V671.03M374.324 610.06H449.088M374.324 610.06V671.03M449.088 610.06H523.853M449.088 610.06V671.03M523.853 610.06H598.618M523.853 610.06V671.03M598.618 610.06H673.382M598.618 610.06V671.03M673.382 610.06H748.147M673.382 610.06V671.03M748.147 610.06H822.912M748.147 610.06V671.03M822.912 610.06H897.676M822.912 610.06V671.03M897.676 610.06H972.441M897.676 610.06V671.03M972.441 610.06H1047.21M972.441 610.06V671.03M1047.21 610.06H1121.97M1047.21 610.06V671.03M1121.97 610.06H1196.74M1121.97 610.06V671.03M1196.74 610.06H1271.5M1196.74 610.06V671.03M1271.5 610.06V671.03M75.2647 671.03H0.5M75.2647 671.03H150.029M75.2647 671.03V732M0.5 671.03V732H75.2647M150.029 671.03H224.794M150.029 671.03V732M224.794 671.03H299.559M224.794 671.03V732M299.559 671.03H374.324M299.559 671.03V732M374.324 671.03H449.088M374.324 671.03V732M449.088 671.03H523.853M449.088 671.03V732M523.853 671.03H598.618M523.853 671.03V732M598.618 671.03H673.382M598.618 671.03V732M673.382 671.03H748.147M673.382 671.03V732M748.147 671.03H822.912M748.147 671.03V732M822.912 671.03H897.676M822.912 671.03V732M897.676 671.03H972.441M897.676 671.03V732M972.441 671.03H1047.21M972.441 671.03V732M1047.21 671.03H1121.97M1047.21 671.03V732M1121.97 671.03H1196.74M1121.97 671.03V732M1196.74 671.03H1271.5M1196.74 671.03V732M1271.5 671.03V732H1196.74M75.2647 732H150.029M150.029 732H224.794M224.794 732H299.559M299.559 732H374.324M374.324 732H449.088M449.088 732H523.853M523.853 732H598.618M598.618 732H673.382M673.382 732H748.147M748.147 732H822.912M822.912 732H897.676M897.676 732H972.441M972.441 732H1047.21M1047.21 732H1121.97M1121.97 732H1196.74" stroke="url(#paint1_radial_13_531)" stroke-opacity="0.08" stroke-width="1.91704"/>
</g>
<defs>
<filter id="filter0_d_13_531" x="-4.45853" y="-0.598572" width="2036.46" height="741.557" filterUnits="userSpaceOnUse" color-interpolation-filters="sRGB">
<feFlood flood-opacity="0" result="BackgroundImageFix"/>
<feColorMatrix in="SourceAlpha" type="matrix" values="0 0 0 0 0 0 0 0 0 0 0 0 0 0 0 0 0 0 127 0" result="hardAlpha"/>
<feOffset dy="4"/>
<feGaussianBlur stdDeviation="2"/>
<feComposite in2="hardAlpha" operator="out"/>
<feColorMatrix type="matrix" values="0 0 0 0 0 0 0 0 0 0 0 0 0 0 0 0 0 0 0.25 0"/>
<feBlend mode="normal" in2="BackgroundImageFix" result="effect1_dropShadow_13_531"/>
<feBlend mode="normal" in="SourceGraphic" in2="effect1_dropShadow_13_531" result="shape"/>
</filter>
<linearGradient id="paint0_linear_13_531" x1="840.5" y1="-1176.79" x2="786.187" y2="754.639" gradientUnits="userSpaceOnUse">
<stop stop-color="#24C68C" stop-opacity="0.63"/>
<stop offset="0.473593" stop-color="#115E43"/>
<stop offset="0.739588" stop-color="#082C1F"/>
<stop offset="0.935015"/>
</linearGradient>
<radialGradient id="paint1_radial_13_531" cx="0" cy="0" r="1" gradientUnits="userSpaceOnUse" gradientTransform="translate(636 385.722) rotate(90) scale(345.497 636.459)">
<stop stop-color="white"/>
<stop offset="1" stop-color="white" stop-opacity="0"/>
</radialGradient>
</defs>
</svg>
